<svg width="108" height="24" viewBox="0 0 108 24" fill="none" xmlns="http://www.w3.org/2000/svg">
<g id="chastymi logo" clip-path="url(#clip0_701_10028)">
<path id="Vector" d="M36.0794 18.4313H34.1313C34.0219 18.4313 33.9169 18.3879 33.8395 18.3106C33.762 18.2333 33.7185 18.1284 33.7185 18.019V14.9593C33.1487 15.1391 32.5543 15.229 31.9567 15.2258C31.3097 15.232 30.6665 15.1247 30.0565 14.909C29.4913 14.7071 28.9733 14.3923 28.5338 13.9838C28.0924 13.5601 27.7489 13.0453 27.5271 12.4754C27.2703 11.825 27.1446 11.1304 27.1571 10.4314V8.67148C27.1571 8.56213 27.2006 8.45723 27.278 8.37993C27.3554 8.30258 27.4604 8.25918 27.5699 8.25918H29.4977C29.6072 8.25918 29.7122 8.30258 29.7896 8.37993C29.867 8.45723 29.9105 8.56213 29.9105 8.67148V10.2529C29.9105 11.0725 30.1169 11.6834 30.5271 12.0806C30.7516 12.285 31.0146 12.4429 31.3005 12.5452C31.5865 12.6475 31.8899 12.6921 32.1933 12.6765C32.4416 12.6747 32.6894 12.6503 32.9333 12.6036C33.185 12.5558 33.4618 12.498 33.7362 12.4301V8.65893C33.7362 8.54958 33.7796 8.44468 33.857 8.36738C33.9344 8.29003 34.0394 8.24658 34.1489 8.24658H36.097C36.2064 8.24658 36.3115 8.29003 36.3888 8.36738C36.4663 8.44468 36.5098 8.54958 36.5098 8.65893V18.0014C36.5123 18.0585 36.5028 18.1156 36.4821 18.1688C36.4614 18.2221 36.4298 18.2705 36.3893 18.311C36.3488 18.3514 36.3003 18.383 36.247 18.4037C36.1936 18.4244 36.1366 18.4338 36.0794 18.4313Z" fill="white"/>
<path id="Vector_2" d="M56.2709 8.03907C57.1006 8.01172 57.9233 8.19722 58.6612 8.57792C59.3986 8.95867 60.0265 9.52187 60.4838 10.2138C60.5433 10.301 60.5675 10.4074 60.5509 10.5115C60.5347 10.6157 60.4792 10.7097 60.3959 10.7745L59.0872 11.7801C59.0024 11.8462 58.8949 11.8764 58.7879 11.8642C58.6814 11.8519 58.5835 11.7983 58.5159 11.7148C58.2898 11.4285 58.0258 11.1747 57.7305 10.9605C57.3066 10.6742 56.8024 10.5299 56.2911 10.5482C55.9196 10.5432 55.5517 10.6169 55.211 10.7644C54.8976 10.9026 54.6139 11.1017 54.3782 11.3502C54.1425 11.6034 53.9578 11.8996 53.8346 12.2226C53.7009 12.5733 53.6343 12.946 53.6383 13.3213C53.6348 13.6998 53.7014 14.0756 53.8346 14.43C53.9563 14.7569 54.1405 15.0567 54.3782 15.3125C54.6139 15.561 54.8976 15.7601 55.211 15.8983C55.5517 16.0458 55.9196 16.1195 56.2911 16.1145C56.8024 16.1337 57.3061 15.9902 57.7305 15.7047C58.0127 15.4973 58.2665 15.2539 58.4856 14.9806C58.5527 14.8969 58.6501 14.8427 58.7571 14.8295C58.8636 14.8164 58.9711 14.8453 59.0569 14.9102L60.3631 15.9159C60.4459 15.979 60.5019 16.0711 60.5196 16.1737C60.5373 16.2763 60.5156 16.3818 60.459 16.469C60.0593 17.0822 59.5268 17.5978 58.901 17.9775C58.1025 18.4508 57.1865 18.6896 56.2583 18.6663C55.5214 18.672 54.7911 18.5318 54.1087 18.254C53.4621 17.9937 52.8721 17.6103 52.372 17.1252C51.6139 16.3697 51.098 15.4055 50.8906 14.3558C50.6837 13.3061 50.7946 12.2185 51.2091 11.232C51.4816 10.6022 51.8768 10.033 52.372 9.55762C53.4208 8.56457 54.8133 8.01577 56.2583 8.02652L56.2709 8.03907Z" fill="white"/>
<path id="Vector_3" d="M70.3195 10.5851H67.5052V18.0194C67.5047 18.1285 67.4613 18.233 67.3836 18.3102C67.3064 18.3874 67.2019 18.431 67.0929 18.4317H65.1623C65.0528 18.4317 64.9478 18.3883 64.8706 18.3109C64.7929 18.2336 64.7495 18.1287 64.7495 18.0194V10.5851H61.9558C61.9013 10.5854 61.8473 10.575 61.7974 10.5544C61.7469 10.5338 61.7015 10.5034 61.6631 10.4651C61.6247 10.4267 61.5945 10.3811 61.5738 10.331C61.5531 10.2808 61.5425 10.227 61.543 10.1728V8.66425C61.543 8.5549 61.5864 8.45005 61.6641 8.3727C61.7413 8.2954 61.8463 8.25195 61.9558 8.25195H70.3195C70.4285 8.25195 70.534 8.2954 70.6112 8.3727C70.6885 8.45005 70.7319 8.5549 70.7319 8.66425V10.1728C70.7324 10.227 70.7218 10.2808 70.7011 10.331C70.6809 10.3811 70.6501 10.4267 70.6117 10.4651C70.5734 10.5034 70.528 10.5338 70.4775 10.5544C70.4275 10.575 70.3735 10.5854 70.3195 10.5851Z" fill="white"/>
<path id="Vector_4" d="M80.6879 18.4324H78.7578C78.6483 18.4324 78.5433 18.389 78.4656 18.3116C78.3884 18.2343 78.345 18.1294 78.345 18.0201V15.8454H76.3513L74.1493 18.4324H71.9295C71.8513 18.4326 71.7751 18.4107 71.709 18.3693C71.6428 18.3278 71.5898 18.2686 71.556 18.1983C71.5227 18.1281 71.5096 18.0497 71.5182 17.9724C71.5273 17.895 71.5581 17.8217 71.607 17.7611L73.6986 15.1665C73.1964 14.8578 72.782 14.4249 72.4958 13.9095C72.1915 13.3445 72.039 12.7105 72.0527 12.0691C72.0436 11.5143 72.1561 10.9643 72.3823 10.4576C72.5902 10.0004 72.895 9.59375 73.2761 9.2659C73.6733 8.93545 74.1301 8.6845 74.6222 8.52675C75.1743 8.3528 75.7502 8.26795 76.3286 8.27535H80.6879C80.7969 8.276 80.9014 8.31975 80.9781 8.397C81.0553 8.47425 81.0982 8.57875 81.0982 8.68765V18.0301C81.0957 18.1373 81.0513 18.2392 80.9751 18.3143C80.8983 18.3894 80.7954 18.4318 80.6879 18.4324ZM76.5275 10.6084C76.1015 10.5914 75.6816 10.717 75.3348 10.9654C75.1764 11.091 75.0512 11.2527 74.9684 11.4369C74.8862 11.6211 74.8493 11.8225 74.8614 12.0239C74.8508 12.2295 74.8882 12.4347 74.9704 12.6236C75.0522 12.8124 75.1774 12.9798 75.3348 13.1125C75.6715 13.3846 76.095 13.5265 76.5275 13.5122H78.3172V10.6084H76.5275Z" fill="white"/>
<path id="Vector_5" d="M93.7556 8.40241L89.2909 13.3578L84.8483 8.40241C84.8095 8.35901 84.7615 8.32431 84.708 8.30051C84.655 8.27666 84.5975 8.26431 84.539 8.26416H84.0105C83.901 8.26416 83.796 8.30756 83.7183 8.38491C83.6411 8.46221 83.5977 8.56711 83.5977 8.67646V18.019C83.5977 18.1283 83.6411 18.2332 83.7183 18.3105C83.796 18.3879 83.901 18.4313 84.0105 18.4313H85.9582C86.0677 18.4313 86.1727 18.3879 86.2504 18.3105C86.3277 18.2332 86.3711 18.1283 86.3711 18.019V13.5639L88.6968 16.1761C88.7352 16.2197 88.7821 16.2546 88.8351 16.2784C88.8881 16.3023 88.9456 16.3145 89.0037 16.3144H89.5574C89.6159 16.3146 89.6739 16.3023 89.7269 16.2785C89.7804 16.2547 89.8284 16.2198 89.8672 16.1761L92.2101 13.5438V18.019C92.2112 18.1281 92.2546 18.2326 92.3318 18.3098C92.409 18.387 92.5135 18.4306 92.623 18.4313H94.5535C94.6626 18.4306 94.7675 18.387 94.8448 18.3098C94.922 18.2326 94.9654 18.1281 94.9664 18.019V8.67646C94.9654 8.56731 94.922 8.46281 94.8448 8.38566C94.7675 8.30846 94.6626 8.26481 94.5535 8.26416H94.0625C94.0044 8.26401 93.9469 8.27626 93.8944 8.30011C93.8414 8.32396 93.794 8.35886 93.7556 8.40241Z" fill="white"/>
<path id="Vector_6" d="M105.773 8.37981L100.249 13.6872V8.67651C100.248 8.56736 100.205 8.46286 100.127 8.38566C100.05 8.30851 99.9453 8.26486 99.8362 8.26416H97.8855C97.776 8.26416 97.671 8.30761 97.5938 8.38496C97.5161 8.46226 97.4727 8.56716 97.4727 8.67651V18.019C97.4727 18.1284 97.5161 18.2333 97.5938 18.3106C97.671 18.3879 97.776 18.4313 97.8855 18.4313H98.4871C98.5941 18.4309 98.6966 18.3895 98.7738 18.3157L104.278 13.036V18.0266C104.278 18.1359 104.322 18.2408 104.399 18.3181C104.477 18.3954 104.582 18.4389 104.691 18.4389H106.619C106.729 18.4389 106.834 18.3954 106.911 18.3181C106.988 18.2408 107.032 18.1359 107.032 18.0266V8.67651C107.032 8.56716 106.988 8.46226 106.911 8.38496C106.834 8.30761 106.729 8.26416 106.619 8.26416H106.058C105.951 8.26476 105.85 8.30616 105.773 8.37981Z" fill="white"/>
<path id="Vector_7" fill-rule="evenodd" clip-rule="evenodd" d="M43.9582 8.00051C43.062 7.99796 42.1797 8.22131 41.3929 8.64996C40.6062 9.07856 39.9405 9.69856 39.4573 10.4525C38.9742 11.2065 38.6894 12.07 38.6292 12.9631C38.569 13.8563 38.7354 14.7502 39.1131 15.562C39.4907 16.3738 40.0672 17.0774 40.7893 17.6074C41.5115 18.1375 42.3559 18.4769 43.2443 18.5944C44.1327 18.7118 45.0364 18.6034 45.8717 18.2792C46.707 17.955 47.4469 17.4255 48.0229 16.7397C47.6899 17.3774 47.1897 17.9127 46.5757 18.2884V18.5624H48.8585C48.9128 18.5628 48.9666 18.5523 49.0168 18.5317C49.0671 18.5111 49.1127 18.4807 49.1511 18.4424C49.1895 18.404 49.2199 18.3585 49.2405 18.3083C49.2612 18.2581 49.2716 18.2043 49.2713 18.1501V13.2928C49.2646 11.8886 48.7022 10.5441 47.7068 9.55261C46.7114 8.56111 45.3638 8.00316 43.9582 8.00051ZM43.9582 15.8974C43.448 15.8984 42.949 15.7483 42.5243 15.4661C42.0995 15.1839 41.7681 14.7822 41.5719 14.3118C41.3756 13.8415 41.3234 13.3236 41.4218 12.8236C41.5201 12.3236 41.7646 11.8639 42.1245 11.5027C42.4843 11.1415 42.9433 10.895 43.4433 10.7943C43.9434 10.6936 44.4621 10.7433 44.9339 10.937C45.4057 11.1307 45.8095 11.4599 46.0941 11.8828C46.3787 12.3057 46.5314 12.8033 46.5329 13.3129C46.5339 13.6515 46.4681 13.987 46.3392 14.3002C46.2103 14.6134 46.0208 14.8982 45.7817 15.1382C45.5426 15.3782 45.2585 15.5688 44.9455 15.6991C44.6327 15.8294 44.2972 15.8968 43.9582 15.8974Z" fill="white"/>
<path id="Vector_8" d="M17.3927 7.54185L10.372 11.1052V3.94052C10.372 3.14444 9.74581 2.5 8.98681 2.5H1.79533C1.03633 2.5 0.410156 3.14444 0.410156 3.94052V15.1235C0.410156 16.185 1.47275 16.8863 2.40253 16.4124L9.42324 12.849V20.0137C9.42324 20.8098 10.0494 21.4543 10.8084 21.4543H17.9999C18.7589 21.4543 19.3851 20.8098 19.3851 20.0137V8.83075C19.3851 7.7693 18.3225 7.08695 17.3927 7.54185Z" fill="url(#paint0_linear_701_10028)"/>
</g>
<defs>
<linearGradient id="paint0_linear_701_10028" x1="-0.733881" y1="5.3411" x2="20.5161" y2="18.634" gradientUnits="userSpaceOnUse">
<stop stop-color="#5F49FD"/>
<stop offset="0.15" stop-color="#A91DFD"/>
<stop offset="0.1565" stop-color="#AB24FD"/>
<stop offset="0.2231" stop-color="#BB6AFD"/>
<stop offset="0.2831" stop-color="#C8A1FD"/>
<stop offset="0.3344" stop-color="#D1C9FD"/>
<stop offset="0.3751" stop-color="#D7E1FD"/>
<stop offset="0.4" stop-color="#D9EAFD"/>
<stop offset="0.4206" stop-color="#DDE9F6"/>
<stop offset="0.4515" stop-color="#E7E7E1"/>
<stop offset="0.4886" stop-color="#F7E4C0"/>
<stop offset="0.5" stop-color="#FDE3B4"/>
<stop offset="0.5332" stop-color="#FDDFB1"/>
<stop offset="0.5677" stop-color="#FCD2A9"/>
<stop offset="0.6026" stop-color="#FBBE9B"/>
<stop offset="0.6378" stop-color="#F9A188"/>
<stop offset="0.65" stop-color="#F89580"/>
<stop offset="1" stop-color="#F24C4E"/>
</linearGradient>
<clipPath id="clip0_701_10028">
<rect width="107" height="24" fill="white" transform="translate(0.410156)"/>
</clipPath>
</defs>
</svg>
