<svg width="41" height="11" viewBox="0 0 41 11" fill="none" xmlns="http://www.w3.org/2000/svg">
<g id="New_logo_short 2" clip-path="url(#clip0_153_15993)">
<path id="Vector" d="M13.7691 7.95087H13.0337C12.9923 7.95087 12.9527 7.93431 12.9235 7.90486C12.8943 7.8754 12.8778 7.83542 12.8778 7.79375V6.62773C12.6627 6.69623 12.4383 6.73051 12.2127 6.72929C11.9684 6.73164 11.7256 6.69076 11.4953 6.60856C11.2819 6.5316 11.0864 6.41164 10.9205 6.25598C10.7538 6.09449 10.6241 5.89833 10.5404 5.68113C10.4435 5.43327 10.396 5.16856 10.4007 4.90218V4.2315C10.4007 4.18983 10.4171 4.14986 10.4463 4.1204C10.4756 4.09092 10.5152 4.07438 10.5565 4.07438H11.2844C11.3257 4.07438 11.3653 4.09092 11.3946 4.1204C11.4238 4.14986 11.4402 4.18983 11.4402 4.2315V4.83416C11.4402 5.1465 11.5181 5.37932 11.673 5.53069C11.7577 5.60859 11.857 5.66876 11.965 5.70775C12.0729 5.74671 12.1875 5.76373 12.302 5.75776C12.3958 5.75708 12.4893 5.74778 12.5814 5.72998C12.6764 5.71179 12.7809 5.68974 12.8845 5.66388V4.22672C12.8845 4.18505 12.9009 4.14507 12.9301 4.11562C12.9593 4.08614 12.999 4.06958 13.0403 4.06958H13.7757C13.8171 4.06958 13.8567 4.08614 13.8859 4.11562C13.9152 4.14507 13.9316 4.18505 13.9316 4.22672V7.78704C13.9325 7.8088 13.929 7.83054 13.9212 7.85084C13.9133 7.87115 13.9014 7.88959 13.8861 7.90501C13.8708 7.9204 13.8525 7.93245 13.8324 7.94033C13.8122 7.94824 13.7907 7.95182 13.7691 7.95087Z" fill="#191919"/>
<path id="Vector_2" d="M21.3918 3.99044C21.7051 3.98001 22.0156 4.05071 22.2942 4.19579C22.5726 4.34089 22.8096 4.55552 22.9823 4.81921C23.0048 4.85242 23.0139 4.89299 23.0076 4.93266C23.0015 4.97235 22.9806 5.00817 22.9491 5.03287L22.455 5.41611C22.423 5.4413 22.3824 5.45279 22.342 5.44814C22.3018 5.44347 22.2649 5.42303 22.2393 5.3912C22.154 5.28212 22.0543 5.1854 21.9429 5.10377C21.7828 4.99466 21.5924 4.93965 21.3994 4.94663C21.2592 4.94472 21.1203 4.97281 20.9917 5.02904C20.8733 5.08168 20.7662 5.15758 20.6773 5.25228C20.5883 5.34877 20.5185 5.46165 20.472 5.58474C20.4216 5.71839 20.3964 5.86042 20.3979 6.00342C20.3966 6.14767 20.4217 6.2909 20.472 6.42596C20.518 6.55051 20.5875 6.66478 20.6773 6.76225C20.7662 6.85695 20.8733 6.93282 20.9917 6.98549C21.1203 7.0417 21.2592 7.06979 21.3994 7.06788C21.5924 7.07522 21.7826 7.02053 21.9429 6.91171C22.0494 6.83269 22.1452 6.73993 22.2279 6.63578C22.2533 6.60387 22.29 6.58321 22.3304 6.5782C22.3706 6.57319 22.4112 6.58422 22.4436 6.60895L22.9367 6.9922C22.968 7.01624 22.9891 7.05134 22.9958 7.09044C23.0025 7.12954 22.9943 7.16974 22.9729 7.20298C22.822 7.43668 22.621 7.63315 22.3847 7.77785C22.0833 7.95824 21.7375 8.04922 21.387 8.04036C21.1088 8.04251 20.8331 7.9891 20.5755 7.88324C20.3314 7.78402 20.1087 7.63791 19.9198 7.45305C19.6337 7.16513 19.4389 6.79771 19.3606 6.39766C19.2825 5.99763 19.3243 5.58316 19.4808 5.20723C19.5837 4.96722 19.7329 4.75029 19.9198 4.56914C20.3158 4.1907 20.8415 3.98156 21.387 3.98565L21.3918 3.99044Z" fill="#191919"/>
<path id="Vector_3" d="M26.6962 4.96065H25.6337V7.79378C25.6335 7.83537 25.6171 7.8752 25.5878 7.9046C25.5586 7.93402 25.5192 7.95065 25.478 7.9509H24.7492C24.7079 7.9509 24.6682 7.93436 24.6391 7.90488C24.6097 7.87543 24.5933 7.83545 24.5933 7.79378V4.96065H23.5387C23.5181 4.96078 23.4977 4.9568 23.4789 4.94895C23.4598 4.9411 23.4426 4.92953 23.4282 4.91492C23.4137 4.90031 23.4023 4.88293 23.3944 4.86382C23.3866 4.84469 23.3826 4.8242 23.3828 4.80353V4.22866C23.3828 4.18698 23.3992 4.14703 23.4286 4.11755C23.4577 4.08809 23.4973 4.07153 23.5387 4.07153H26.6962C26.7374 4.07153 26.7772 4.08809 26.8063 4.11755C26.8355 4.14703 26.8519 4.18698 26.8519 4.22866V4.80353C26.8521 4.8242 26.8481 4.84469 26.8402 4.86382C26.8326 4.88293 26.821 4.90031 26.8065 4.91492C26.792 4.92953 26.7749 4.9411 26.7558 4.94895C26.737 4.9568 26.7166 4.96078 26.6962 4.96065Z" fill="#191919"/>
<path id="Vector_4" d="M30.6093 7.95123H29.8806C29.8393 7.95123 29.7996 7.93469 29.7703 7.90521C29.7411 7.87575 29.7248 7.83578 29.7248 7.7941V6.96535H28.9721L28.1408 7.95123H27.3027C27.2732 7.9513 27.2444 7.94296 27.2195 7.92718C27.1945 7.91138 27.1745 7.8888 27.1617 7.86203C27.1492 7.83526 27.1442 7.8054 27.1474 7.77593C27.1509 7.74643 27.1625 7.71852 27.181 7.69542L27.9706 6.70665C27.781 6.58901 27.6246 6.42401 27.5165 6.2276C27.4016 6.01229 27.3441 5.77068 27.3492 5.52627C27.3458 5.31484 27.3883 5.10522 27.4737 4.91212C27.5522 4.73789 27.6673 4.58292 27.8111 4.45798C27.9611 4.33205 28.1335 4.23641 28.3193 4.1763C28.5278 4.11001 28.7452 4.07767 28.9635 4.08049H30.6093C30.6504 4.08074 30.6899 4.09741 30.7188 4.12685C30.748 4.15629 30.7642 4.19611 30.7642 4.23761V7.79793C30.7632 7.83879 30.7464 7.87762 30.7177 7.90624C30.6887 7.93486 30.6498 7.951 30.6093 7.95123ZM29.0386 4.96961C28.8778 4.96311 28.7192 5.01098 28.5883 5.10566C28.5285 5.1535 28.4813 5.21513 28.45 5.28534C28.419 5.35554 28.405 5.43227 28.4096 5.50902C28.4056 5.58737 28.4197 5.66559 28.4508 5.73756C28.4816 5.80953 28.5289 5.8733 28.5883 5.92387C28.7154 6.02759 28.8753 6.08166 29.0386 6.07621H29.7143V4.96961H29.0386Z" fill="#191919"/>
<path id="Vector_5" d="M35.5439 4.1291L33.8583 6.01753L32.1812 4.1291C32.1665 4.11256 32.1484 4.09934 32.1282 4.09027C32.1082 4.08118 32.0865 4.07647 32.0644 4.07642H31.8649C31.8235 4.07642 31.7839 4.09296 31.7545 4.12243C31.7254 4.15189 31.709 4.19187 31.709 4.23354V7.79386C31.709 7.83553 31.7254 7.87551 31.7545 7.90496C31.7839 7.93444 31.8235 7.951 31.8649 7.951H32.6002C32.6415 7.951 32.6811 7.93444 32.7105 7.90496C32.7396 7.87551 32.756 7.83553 32.756 7.79386V6.09609L33.6341 7.09157C33.6485 7.10817 33.6663 7.12147 33.6863 7.13055C33.7063 7.13964 33.728 7.14431 33.7499 7.14427H33.9589C33.981 7.14433 34.0029 7.13966 34.023 7.13057C34.0432 7.1215 34.0613 7.1082 34.0759 7.09157L34.9604 6.08843V7.79386C34.9608 7.83545 34.9772 7.87528 35.0064 7.9047C35.0355 7.9341 35.0749 7.95073 35.1163 7.951H35.8451C35.8863 7.95073 35.9259 7.9341 35.9551 7.9047C35.9842 7.87528 36.0006 7.83545 36.001 7.79386V4.23354C36.0006 4.19194 35.9842 4.15212 35.9551 4.12272C35.9259 4.0933 35.8863 4.07666 35.8451 4.07642H35.6597C35.6378 4.07636 35.6161 4.08103 35.5963 4.09012C35.5763 4.09921 35.5584 4.11251 35.5439 4.1291Z" fill="#191919"/>
<path id="Vector_6" d="M40.079 4.12049L37.9933 6.14306V4.23356C37.9931 4.19196 37.9767 4.15214 37.9474 4.12272C37.9182 4.09332 37.8788 4.07668 37.8376 4.07642H37.1012C37.0598 4.07642 37.0202 4.09297 36.991 4.12245C36.9617 4.15191 36.9453 4.19189 36.9453 4.23356V7.79388C36.9453 7.83555 36.9617 7.87553 36.991 7.90498C37.0202 7.93446 37.0598 7.951 37.1012 7.951H37.3283C37.3687 7.95083 37.4074 7.93505 37.4365 7.90693L39.5146 5.89491V7.79676C39.5146 7.83843 39.531 7.87838 39.5603 7.90786C39.5895 7.93732 39.6291 7.95388 39.6705 7.95388H40.3984C40.4397 7.95388 40.4793 7.93732 40.5085 7.90786C40.5376 7.87838 40.5542 7.83843 40.5542 7.79676V4.23356C40.5542 4.19189 40.5376 4.15191 40.5085 4.12245C40.4793 4.09297 40.4397 4.07642 40.3984 4.07642H40.1865C40.1463 4.07664 40.108 4.09242 40.079 4.12049Z" fill="#191919"/>
<path id="Vector_7" fill-rule="evenodd" clip-rule="evenodd" d="M16.7429 3.97584C16.4046 3.97487 16.0715 4.05998 15.7745 4.22334C15.4775 4.38667 15.2261 4.62295 15.0437 4.91027C14.8614 5.19759 14.7538 5.52666 14.7311 5.86703C14.7084 6.2074 14.7712 6.54805 14.9138 6.85744C15.0563 7.16681 15.274 7.43492 15.5466 7.63692C15.8192 7.83891 16.138 7.96827 16.4734 8.01303C16.8088 8.05777 17.15 8.01646 17.4653 7.89291C17.7807 7.76937 18.06 7.56758 18.2775 7.30623C18.1518 7.54927 17.9629 7.75326 17.7311 7.89642V8.00086H18.5929C18.6134 8.00099 18.6338 7.99701 18.6527 7.98916C18.6717 7.98131 18.6889 7.96972 18.7034 7.95511C18.7179 7.94049 18.7294 7.92313 18.7372 7.904C18.745 7.88489 18.7489 7.86439 18.7488 7.84373V5.99265C18.7462 5.45755 18.5339 4.94518 18.1581 4.56733C17.7823 4.18948 17.2736 3.97685 16.7429 3.97584ZM16.7429 6.98526C16.5503 6.98564 16.3619 6.92844 16.2016 6.82089C16.0412 6.71333 15.9161 6.56027 15.842 6.381C15.7679 6.20176 15.7482 6.00439 15.7854 5.81385C15.8225 5.6233 15.9148 5.44812 16.0507 5.31047C16.1865 5.17284 16.3598 5.07888 16.5486 5.0405C16.7374 5.00213 16.9332 5.02107 17.1113 5.09489C17.2894 5.16872 17.4419 5.29416 17.5493 5.45532C17.6568 5.61648 17.7144 5.80613 17.715 6.00033C17.7153 6.12937 17.6905 6.25722 17.6418 6.37658C17.5932 6.49594 17.5216 6.60445 17.4314 6.69593C17.3411 6.7874 17.2338 6.86003 17.1157 6.90969C16.9976 6.95932 16.8709 6.98501 16.7429 6.98526Z" fill="#191919"/>
<path id="Vector_8" d="M6.71411 3.80127L4.0636 5.15925V2.42885C4.0636 2.12547 3.82719 1.87988 3.54065 1.87988H0.825674C0.539131 1.87988 0.302734 2.12547 0.302734 2.42885V6.69057C0.302734 7.09508 0.703893 7.36234 1.05491 7.18176L3.70542 5.82379V8.55417C3.70542 8.85756 3.94183 9.10315 4.22837 9.10315H6.94335C7.2299 9.10315 7.46628 8.85756 7.46628 8.55417V4.29246C7.46628 3.88795 7.06513 3.62792 6.71411 3.80127Z" fill="url(#paint0_linear_153_15993)"/>
</g>
<defs>
<linearGradient id="paint0_linear_153_15993" x1="-0.12917" y1="2.96259" x2="7.93546" y2="7.96026" gradientUnits="userSpaceOnUse">
<stop stop-color="#5F49FD"/>
<stop offset="0.15" stop-color="#A91DFD"/>
<stop offset="0.1565" stop-color="#AB24FD"/>
<stop offset="0.2231" stop-color="#BB6AFD"/>
<stop offset="0.2831" stop-color="#C8A1FD"/>
<stop offset="0.3344" stop-color="#D1C9FD"/>
<stop offset="0.3751" stop-color="#D7E1FD"/>
<stop offset="0.4" stop-color="#D9EAFD"/>
<stop offset="0.4206" stop-color="#DDE9F6"/>
<stop offset="0.4515" stop-color="#E7E7E1"/>
<stop offset="0.4886" stop-color="#F7E4C0"/>
<stop offset="0.5" stop-color="#FDE3B4"/>
<stop offset="0.5332" stop-color="#FDDFB1"/>
<stop offset="0.5677" stop-color="#FCD2A9"/>
<stop offset="0.6026" stop-color="#FBBE9B"/>
<stop offset="0.6378" stop-color="#F9A188"/>
<stop offset="0.65" stop-color="#F89580"/>
<stop offset="1" stop-color="#F24C4E"/>
</linearGradient>
<clipPath id="clip0_153_15993">
<rect width="40.3954" height="9.14612" fill="white" transform="translate(0.302734 0.927002)"/>
</clipPath>
</defs>
</svg>
