<svg width="43" height="8" viewBox="0 0 43 8" fill="none" xmlns="http://www.w3.org/2000/svg">
<g id="Logo">
<g id="Logo_2">
<path d="M8.06987 1.94287H7.07764V6.97443H8.06987V1.94287Z" fill="#191919"/>
<path d="M5.93787 2.22442H4.94564V7.25588H5.93787V2.22442Z" fill="#191919"/>
<path d="M3.80586 2.53874H2.81364V7.57115H3.80586V2.53874Z" fill="#191919"/>
<path d="M1.67386 2.85656H0.681641L0.681644 7.88958H1.67387L1.67386 2.85656Z" fill="#191919"/>
</g>
<g id="Dolyame kern">
<path d="M34.2745 4.62574L32.6769 2.84945H31.7429V6.96217H32.718V4.33818L34.1766 5.89281H34.3568L35.7903 4.33818V6.96217H36.7655V2.84945H35.8315L34.2745 4.62574Z" fill="#191919"/>
<path d="M41.4113 2.84945L38.9943 5.52257V2.84945H38.0192V6.96217H38.9126L41.3296 4.28905V6.96217H42.3047V2.84945H41.4113Z" fill="#191919"/>
<path d="M26.4904 4.35436C26.4904 5.00916 26.8485 5.52497 27.3981 5.74124L26.3675 6.96217H27.5611L28.4986 5.85147H29.5132V6.96217H30.4883V2.84945H28.0057C27.08 2.84945 26.4904 3.48269 26.4904 4.35436ZM29.5138 3.75527V4.97141H28.1865C27.7437 4.97141 27.5062 4.72459 27.5062 4.36274C27.5062 4.00089 27.752 3.75407 28.1865 3.75407L29.5138 3.75527Z" fill="#191919"/>
<path d="M21.9589 3.672C21.8992 5.08644 21.6008 5.99944 21.0166 5.99944H20.8703V6.98674L21.0261 6.99512C22.1976 7.06042 22.8451 6.03239 22.9514 3.78702H24.4923V6.96217H25.4657V2.84945H21.9917L21.9589 3.672Z" fill="#191919"/>
<path d="M18.2881 2.79199C16.9692 2.79199 16.0203 3.705 16.0203 4.90556C16.0203 6.14747 17.0527 7.02812 18.2881 7.02812C19.5748 7.02812 20.5744 6.09834 20.5744 4.90556C20.5744 3.71279 19.5748 2.79199 18.2881 2.79199ZM18.2881 6.04083C17.5427 6.04083 17.0348 5.55557 17.0348 4.90556C17.0348 4.23938 17.5433 3.7673 18.2881 3.7673C19.0329 3.7673 19.558 4.26095 19.558 4.90556C19.558 5.55018 19.0257 6.04083 18.2881 6.04083Z" fill="#191919"/>
<path d="M14.986 2.85721H11.5443L11.5115 3.67976C11.4626 4.86475 11.1534 5.99163 10.5692 6.0078L10.2988 6.01619V7.89175L11.2823 7.88977V6.96274H14.699V7.88977H15.6908V6.0078H14.986V2.85721ZM14.0109 6.0078H11.9299C12.282 5.47342 12.4706 4.7 12.5034 3.79538H14.0109V6.0078Z" fill="#191919"/>
</g>
</g>
</svg>
