<svg width="105" height="18" viewBox="0 0 105 18" fill="none" xmlns="http://www.w3.org/2000/svg">
<g id="Logo">
<g id="Logo_2">
<path d="M18.5158 2.99658H16.0271V15.6169H18.5158V2.99658Z" fill="white"/>
<path d="M13.1682 3.70277H10.6795V16.3228H13.1682V3.70277Z" fill="white"/>
<path d="M7.82066 4.49117H5.33193V17.1136H7.82066V4.49117Z" fill="white"/>
<path d="M2.4731 5.28832H-0.015625L-0.0156155 17.9123H2.47311L2.4731 5.28832Z" fill="white"/>
</g>
<g id="Dolyame kern">
<path d="M84.2459 9.72642L80.2387 5.27108H77.8961V15.5867H80.342V9.00515L84.0004 12.9045H84.4525L88.048 9.00515V15.5867H90.494V5.27108H88.1513L84.2459 9.72642Z" fill="white"/>
<path d="M102.147 5.27108L96.0844 11.9759V5.27108H93.6385V15.5867H95.8793L101.942 8.88194V15.5867H104.388V5.27108H102.147Z" fill="white"/>
<path d="M64.7217 9.04573C64.7217 10.6881 65.6198 11.9819 66.9984 12.5244L64.4133 15.5867H67.4071L69.7587 12.8008H72.3034V15.5867H74.7494V5.27108H68.5223C66.2006 5.27108 64.7217 6.85937 64.7217 9.04573ZM72.3049 7.54308V10.5935H68.9758C67.8652 10.5935 67.2694 9.97436 67.2694 9.06676C67.2694 8.15916 67.8861 7.54007 68.9758 7.54007L72.3049 7.54308Z" fill="white"/>
<path d="M53.3556 7.33421C53.2059 10.882 52.4574 13.172 50.992 13.172H50.6252V15.6484L51.0159 15.6694C53.9543 15.8332 55.5785 13.2546 55.8449 7.62272H59.7099V15.5867H62.1513V5.27108H53.4379L53.3556 7.33421Z" fill="white"/>
<path d="M44.1483 5.12695C40.8401 5.12695 38.4601 7.41699 38.4601 10.4283C38.4601 13.5433 41.0497 15.7522 44.1483 15.7522C47.3756 15.7522 49.8829 13.4201 49.8829 10.4283C49.8829 7.43652 47.3756 5.12695 44.1483 5.12695ZM44.1483 13.2758C42.2786 13.2758 41.0048 12.0587 41.0048 10.4283C41.0048 8.75735 42.2801 7.57326 44.1483 7.57326C46.0164 7.57326 47.3337 8.81144 47.3337 10.4283C47.3337 12.0451 45.9984 13.2758 44.1483 13.2758Z" fill="white"/>
<path d="M35.866 5.29054H27.2334L27.1511 7.35367C27.0283 10.3259 26.2529 13.1524 24.7875 13.193L24.1094 13.214V17.9184L26.5763 17.9134V15.5882H35.146V17.9134H37.6338V13.193H35.866V5.29054ZM33.4201 13.193H28.2004C29.0836 11.8526 29.5566 9.91268 29.6389 7.64368H33.4201V13.193Z" fill="white"/>
</g>
</g>
</svg>
