<svg width="14" height="14" viewBox="0 0 14 14" fill="none" xmlns="http://www.w3.org/2000/svg">
<g id="Group 5286">
<circle id="Ellipse 185" cx="7" cy="7" r="7" fill="#41352B"/>
<path id="Vector" fill-rule="evenodd" clip-rule="evenodd" d="M4.97203 3.65587C4.94911 3.68015 4.9303 4.36252 4.9303 5.17234V6.64463H4.65866C4.34145 6.64463 4.32036 6.6827 4.31914 7.2573L4.31836 7.6135H4.62322H4.92813L4.9431 8.8531L4.95812 10.0927H5.54225H6.12637L6.15419 8.83884L6.182 7.58501H6.42299H6.66399L7.26576 8.78186C7.59676 9.44012 7.89472 10.0092 7.92787 10.0465C7.99452 10.1215 9.04445 10.1362 9.15877 10.0638C9.20483 10.0347 9.03894 9.64654 8.60985 8.7798C8.27162 8.09658 8.00776 7.51622 8.02356 7.49006C8.0393 7.4639 8.09788 7.44253 8.15374 7.44253C8.34622 7.44253 9.1423 6.99029 9.28288 6.80113C9.6476 6.31036 9.74857 5.89347 9.654 5.26888C9.54324 4.53784 9.1285 4.05727 8.37893 3.79135C8.04832 3.67411 7.89099 3.66112 6.51579 3.63752C5.68967 3.62339 4.99495 3.63165 4.97203 3.65587ZM7.86279 4.83517C8.1909 4.92784 8.34878 5.08656 8.43862 5.4141C8.64446 6.16446 8.05944 6.57373 6.73832 6.60353L6.182 6.61613L6.16671 5.65387L6.1514 4.69166L6.86209 4.72244C7.25296 4.73942 7.7033 4.79014 7.86279 4.83517Z" fill="white"/>
</g>
</svg>
