<svg width="71" height="16" viewBox="0 0 71 16" fill="none" xmlns="http://www.w3.org/2000/svg">
<g id="chastymi logo">
<path id="Vector" d="M23.6685 12.2874H22.3759C22.3032 12.2874 22.2336 12.2584 22.1822 12.2069C22.1308 12.1554 22.102 12.0854 22.102 12.0125V9.97273C21.7239 10.0926 21.3294 10.1525 20.9329 10.1504C20.5036 10.1545 20.0768 10.083 19.672 9.9392C19.297 9.80457 18.9532 9.5947 18.6616 9.3224C18.3688 9.0399 18.1408 8.69673 17.9936 8.31677C17.8232 7.88317 17.7398 7.4201 17.7481 6.9541V5.78083C17.7481 5.70793 17.777 5.638 17.8283 5.58647C17.8797 5.5349 17.9494 5.50597 18.022 5.50597H19.3012C19.3739 5.50597 19.4435 5.5349 19.4949 5.58647C19.5463 5.638 19.5752 5.70793 19.5752 5.78083V6.8351C19.5752 7.3815 19.7121 7.7888 19.9843 8.0536C20.1333 8.18987 20.3077 8.29513 20.4975 8.36333C20.6873 8.4315 20.8886 8.46127 21.0899 8.45083C21.2547 8.44963 21.4191 8.43337 21.5809 8.40223C21.7479 8.3704 21.9316 8.33183 22.1137 8.2866V5.77247C22.1137 5.69957 22.1425 5.62963 22.1939 5.5781C22.2452 5.52653 22.3149 5.49757 22.3875 5.49757H23.6802C23.7528 5.49757 23.8225 5.52653 23.8738 5.5781C23.9252 5.62963 23.9541 5.69957 23.9541 5.77247V12.0008C23.9558 12.0389 23.9495 12.0769 23.9357 12.1124C23.922 12.1479 23.901 12.1802 23.8742 12.2072C23.8473 12.2341 23.8151 12.2552 23.7797 12.269C23.7443 12.2828 23.7065 12.2891 23.6685 12.2874Z" fill="#191919"/>
<path id="Vector_2" d="M37.0662 5.35911C37.6168 5.34088 38.1627 5.46455 38.6523 5.71835C39.1416 5.97218 39.5582 6.34765 39.8616 6.80895C39.9012 6.86705 39.9172 6.93801 39.9062 7.00741C39.8955 7.07685 39.8586 7.13951 39.8034 7.18271L38.935 7.85315C38.8787 7.89721 38.8074 7.91731 38.7364 7.90918C38.6657 7.90101 38.6007 7.86525 38.5558 7.80958C38.4058 7.61875 38.2307 7.44955 38.0347 7.30675C37.7534 7.11588 37.4188 7.01965 37.0796 7.03185C36.8331 7.02851 36.5889 7.07765 36.3629 7.17601C36.1549 7.26811 35.9667 7.40088 35.8103 7.56655C35.6539 7.73535 35.5313 7.93281 35.4496 8.14815C35.3608 8.38195 35.3166 8.63041 35.3193 8.88058C35.317 9.13291 35.3612 9.38348 35.4496 9.61975C35.5303 9.83765 35.6526 10.0375 35.8103 10.208C35.9667 10.3737 36.1549 10.5064 36.3629 10.5986C36.5889 10.6969 36.8331 10.746 37.0796 10.7427C37.4188 10.7555 37.7531 10.6599 38.0347 10.4695C38.2219 10.3313 38.3904 10.169 38.5358 9.98681C38.5803 9.93098 38.6449 9.89485 38.7159 9.88608C38.7866 9.87731 38.8579 9.89661 38.9149 9.93988L39.7816 10.6103C39.8365 10.6524 39.8737 10.7138 39.8854 10.7822C39.8971 10.8506 39.8827 10.9209 39.8452 10.979C39.58 11.3879 39.2267 11.7316 38.8114 11.9847C38.2816 12.3003 37.6737 12.4594 37.0578 12.4439C36.5689 12.4477 36.0842 12.3543 35.6314 12.1691C35.2024 11.9955 34.8109 11.7399 34.479 11.4165C33.976 10.9128 33.6337 10.2701 33.4961 9.57025C33.3588 8.87045 33.4324 8.14538 33.7074 7.48775C33.8883 7.06788 34.1505 6.68838 34.479 6.37148C35.175 5.70945 36.099 5.34358 37.0578 5.35075L37.0662 5.35911Z" fill="#191919"/>
<path id="Vector_3" d="M46.3896 7.05638H44.5222V12.0126C44.5218 12.0853 44.493 12.155 44.4415 12.2064C44.3902 12.2579 44.3209 12.287 44.2486 12.2874H42.9675C42.8949 12.2874 42.8252 12.2585 42.774 12.2069C42.7224 12.1554 42.6936 12.0855 42.6936 12.0126V7.05638H40.8399C40.8037 7.05661 40.7679 7.04965 40.7347 7.03591C40.7012 7.02218 40.6711 7.00195 40.6456 6.97638C40.6202 6.95081 40.6001 6.92041 40.5864 6.88698C40.5726 6.85351 40.5656 6.81768 40.5659 6.78151V5.77585C40.5659 5.70295 40.5947 5.63305 40.6463 5.58148C40.6975 5.52995 40.7672 5.50098 40.8399 5.50098H46.3896C46.4619 5.50098 46.5319 5.52995 46.5832 5.58148C46.6344 5.63305 46.6632 5.70295 46.6632 5.77585V6.78151C46.6636 6.81768 46.6565 6.85351 46.6428 6.88698C46.6294 6.92041 46.609 6.95081 46.5835 6.97638C46.5581 7.00195 46.5279 7.02218 46.4944 7.03591C46.4613 7.04965 46.4254 7.05661 46.3896 7.05638Z" fill="#191919"/>
<path id="Vector_4" d="M53.2679 12.288H51.9872C51.9145 12.288 51.8449 12.2591 51.7933 12.2075C51.7421 12.156 51.7133 12.0861 51.7133 12.0132V10.5634H50.3904L48.9292 12.288H47.4563C47.4044 12.2882 47.3538 12.2736 47.3099 12.246C47.2661 12.2183 47.2309 12.1788 47.2085 12.132C47.1863 12.0852 47.1776 12.0329 47.1833 11.9814C47.1894 11.9298 47.2098 11.8809 47.2423 11.8405L48.6301 10.1108C48.2969 9.90499 48.0219 9.61636 47.832 9.27276C47.6301 8.89609 47.529 8.47343 47.538 8.04586C47.532 7.676 47.6067 7.3093 47.7567 6.9715C47.8947 6.6667 48.097 6.3956 48.3498 6.17703C48.6134 5.95673 48.9165 5.78943 49.243 5.68426C49.6094 5.5683 49.9915 5.51173 50.3753 5.51666H53.2679C53.3402 5.5171 53.4096 5.54626 53.4605 5.59776C53.5117 5.64926 53.5402 5.71893 53.5402 5.79153V12.0199C53.5385 12.0913 53.509 12.1593 53.4585 12.2093C53.4076 12.2594 53.3392 12.2876 53.2679 12.288ZM50.5073 7.07206C50.2246 7.0607 49.946 7.14443 49.7159 7.31006C49.6107 7.39376 49.5277 7.50156 49.4728 7.6244C49.4182 7.7472 49.3937 7.88143 49.4017 8.0157C49.3947 8.15276 49.4195 8.2896 49.4741 8.4155C49.5283 8.5414 49.6114 8.65296 49.7159 8.74143C49.9393 8.92286 50.2203 9.01746 50.5073 9.00793H51.6948V7.07206H50.5073Z" fill="#191919"/>
<path id="Vector_5" d="M61.941 5.60179L58.9784 8.90536L56.0306 5.60179C56.0048 5.57286 55.973 5.54972 55.9375 5.53386C55.9023 5.51796 55.8641 5.50973 55.8253 5.50963H55.4746C55.402 5.50963 55.3323 5.53856 55.2807 5.59013C55.2295 5.64166 55.2007 5.71159 55.2007 5.78449V12.0128C55.2007 12.0857 55.2295 12.1557 55.2807 12.2072C55.3323 12.2588 55.402 12.2877 55.4746 12.2877H56.767C56.8397 12.2877 56.9094 12.2588 56.9609 12.2072C57.0122 12.1557 57.041 12.0857 57.041 12.0128V9.04279L58.5842 10.7843C58.6097 10.8133 58.6408 10.8366 58.676 10.8525C58.7112 10.8684 58.7493 10.8765 58.7879 10.8765H59.1552C59.1941 10.8766 59.2326 10.8684 59.2678 10.8525C59.3033 10.8366 59.3351 10.8134 59.3609 10.7843L60.9155 9.02939V12.0128C60.9162 12.0856 60.945 12.1553 60.9962 12.2067C61.0475 12.2582 61.1168 12.2873 61.1895 12.2877H62.4705C62.5428 12.2873 62.6125 12.2582 62.6637 12.2067C62.715 12.1553 62.7438 12.0856 62.7444 12.0128V5.78449C62.7438 5.71173 62.715 5.64206 62.6637 5.59063C62.6125 5.53916 62.5428 5.51006 62.4705 5.50963H62.1446C62.1061 5.50953 62.0679 5.51769 62.0331 5.53359C61.9979 5.54949 61.9665 5.57276 61.941 5.60179Z" fill="#191919"/>
<path id="Vector_6" d="M69.9122 5.58663L66.2463 9.12486V5.78443C66.2459 5.71166 66.2171 5.642 66.1656 5.59053C66.1143 5.5391 66.045 5.51 65.9727 5.50953H64.6783C64.6056 5.50953 64.5359 5.5385 64.4847 5.59006C64.4331 5.6416 64.4043 5.71153 64.4043 5.78443V12.0128C64.4043 12.0857 64.4331 12.1556 64.4847 12.2071C64.5359 12.2587 64.6056 12.2876 64.6783 12.2876H65.0775C65.1485 12.2873 65.2164 12.2597 65.2677 12.2105L68.9202 8.69076V12.0178C68.9202 12.0907 68.949 12.1606 69.0005 12.2122C69.0518 12.2637 69.1214 12.2927 69.1941 12.2927H70.4735C70.5461 12.2927 70.6158 12.2637 70.667 12.2122C70.7183 12.1606 70.7474 12.0907 70.7474 12.0178V5.78443C70.7474 5.71153 70.7183 5.6416 70.667 5.59006C70.6158 5.5385 70.5461 5.50953 70.4735 5.50953H70.101C70.0304 5.50993 69.9631 5.53753 69.9122 5.58663Z" fill="#191919"/>
<path id="Vector_7" fill-rule="evenodd" clip-rule="evenodd" d="M28.8956 5.33357C28.3009 5.33187 27.7155 5.48077 27.1934 5.76653C26.6714 6.05227 26.2296 6.4656 25.9091 6.96823C25.5885 7.47087 25.3995 8.04653 25.3595 8.64197C25.3196 9.2374 25.43 9.83333 25.6806 10.3746C25.9312 10.9158 26.3137 11.3848 26.7929 11.7382C27.2721 12.0915 27.8324 12.3178 28.4219 12.3961C29.0114 12.4744 29.611 12.4021 30.1653 12.186C30.7196 11.9699 31.2105 11.6169 31.5927 11.1597C31.3718 11.5848 31.0399 11.9417 30.6324 12.1921V12.3748H32.1472C32.1832 12.3751 32.2189 12.3681 32.2523 12.3544C32.2856 12.3406 32.3159 12.3204 32.3414 12.2948C32.3668 12.2692 32.387 12.2389 32.4007 12.2054C32.4144 12.172 32.4213 12.1361 32.4211 12.1V8.86173C32.4167 7.92563 32.0435 7.0293 31.383 6.3683C30.7225 5.7073 29.8283 5.33533 28.8956 5.33357ZM28.8956 10.5982C28.5571 10.5988 28.226 10.4988 27.9441 10.3106C27.6623 10.1225 27.4423 9.8547 27.3121 9.5411C27.1819 9.22753 27.1473 8.88227 27.2125 8.54893C27.2778 8.2156 27.44 7.90913 27.6788 7.66833C27.9176 7.42757 28.2221 7.2632 28.554 7.19607C28.8858 7.12893 29.23 7.16207 29.543 7.2912C29.8561 7.42037 30.124 7.6398 30.3129 7.92173C30.5017 8.20367 30.6031 8.53543 30.6041 8.87517C30.6047 9.1009 30.561 9.32457 30.4755 9.53337C30.39 9.74217 30.2643 9.932 30.1056 10.092C29.9469 10.252 29.7584 10.3791 29.5507 10.466C29.3431 10.5528 29.1205 10.5977 28.8956 10.5982Z" fill="#191919"/>
<path id="Vector_8" d="M11.2688 5.02803L6.6102 7.40363V2.62715C6.6102 2.09643 6.19468 1.6668 5.69105 1.6668H0.919132C0.415497 1.6668 0 2.09643 0 2.62715V10.0825C0 10.7901 0.705087 11.2577 1.32204 10.9418L5.98064 8.56616V13.3426C5.98064 13.8734 6.39616 14.303 6.89979 14.303H11.6717C12.1754 14.303 12.5908 13.8734 12.5908 13.3426V5.8873C12.5908 5.17966 11.8858 4.72476 11.2688 5.02803Z" fill="url(#paint0_linear_320_10748)"/>
</g>
<defs>
<linearGradient id="paint0_linear_320_10748" x1="-0.759127" y1="3.56086" x2="13.3784" y2="12.3632" gradientUnits="userSpaceOnUse">
<stop stop-color="#5F49FD"/>
<stop offset="0.15" stop-color="#A91DFD"/>
<stop offset="0.1565" stop-color="#AB24FD"/>
<stop offset="0.2231" stop-color="#BB6AFD"/>
<stop offset="0.2831" stop-color="#C8A1FD"/>
<stop offset="0.3344" stop-color="#D1C9FD"/>
<stop offset="0.3751" stop-color="#D7E1FD"/>
<stop offset="0.4" stop-color="#D9EAFD"/>
<stop offset="0.4206" stop-color="#DDE9F6"/>
<stop offset="0.4515" stop-color="#E7E7E1"/>
<stop offset="0.4886" stop-color="#F7E4C0"/>
<stop offset="0.5" stop-color="#FDE3B4"/>
<stop offset="0.5332" stop-color="#FDDFB1"/>
<stop offset="0.5677" stop-color="#FCD2A9"/>
<stop offset="0.6026" stop-color="#FBBE9B"/>
<stop offset="0.6378" stop-color="#F9A188"/>
<stop offset="0.65" stop-color="#F89580"/>
<stop offset="1" stop-color="#F24C4E"/>
</linearGradient>
</defs>
</svg>
