<svg width="107" height="110" viewBox="0 0 107 110" fill="none" xmlns="http://www.w3.org/2000/svg">
<g id="Frame" clip-path="url(#clip0_152_15916)">
<path id="Vector" d="M104.025 74.2188C104.025 74.2188 122.188 91.598 54.8381 91.7363C-12.5121 91.8745 2.14726 74.2188 2.14726 74.2188" stroke="#191919" stroke-width="1.5" stroke-miterlimit="10"/>
<path id="Vector_2" d="M36.1652 86.3888L35.7503 95.5624L21.9668 89.8923L36.1652 86.3888Z" fill="#191919" stroke="#191919" stroke-width="1.5" stroke-miterlimit="10"/>
<path id="Vector_3" d="M84.0214 0.138306C82.8201 8.53524 82.2499 17.0104 82.3157 25.4926C83.2376 30.1025 98.819 67.9034 96.6063 77.0771" stroke="#191919" stroke-width="1.5" stroke-miterlimit="10"/>
<path id="Vector_4" d="M21.7366 0.138306C21.7366 0.138306 22.1976 3.54961 22.7047 7.88289C23.6048 13.7069 23.9444 19.6038 23.7189 25.4926C22.7969 29.2266 7.44604 69.6091 9.15169 77.0771" stroke="#191919" stroke-width="1.5" stroke-miterlimit="10"/>
<path id="Vector_5" d="M83.1866 7.56003C83.1866 7.56003 40.7297 3.41114 22.7051 7.92882" stroke="#191919" stroke-width="1.5" stroke-miterlimit="10"/>
<path id="Vector_6" d="M90.9304 50.4777C90.9304 50.4777 59.4911 64.3073 15.4668 49.8784" stroke="#191919" stroke-width="1.5" stroke-miterlimit="10"/>
<path id="Vector_7" d="M52.9008 34.6661L52.5781 37.2938" stroke="#191919" stroke-width="1.5" stroke-miterlimit="10"/>
<path id="Vector_8" d="M11.9629 61.1731C11.9629 61.1731 42.0193 66.3362 47.4128 84.8678" stroke="#191919" stroke-width="1.5" stroke-miterlimit="10"/>
<path id="Vector_9" d="M94.2073 61.1731C94.2073 61.1731 63.229 66.751 58.6191 84.8678" stroke="#191919" stroke-width="1.5" stroke-miterlimit="10"/>
<path id="Vector_10" d="M10.6777 93.2576C11.3911 98.2858 12.3759 103.272 13.628 108.194" stroke="#191919" stroke-width="1.5" stroke-miterlimit="10"/>
<path id="Vector_11" d="M95.0854 93.2576C94.9983 98.29 94.3645 103.298 93.1953 108.194" stroke="#191919" stroke-width="1.5" stroke-miterlimit="10"/>
<path id="Vector_12" d="M48.0586 97.729V109.392" stroke="#191919" stroke-width="1.5" stroke-miterlimit="10"/>
<path id="Vector_13" d="M57.9277 97.729V109.392" stroke="#191919" stroke-width="1.5" stroke-miterlimit="10"/>
</g>
<defs>
<clipPath id="clip0_152_15916">
<rect width="107" height="110" fill="white"/>
</clipPath>
</defs>
</svg>
