<svg xmlns="http://www.w3.org/2000/svg" width="120" height="21" viewBox="0 0 120 21" fill="none">
  <g clip-path="url(#clip0_701_8336)">
    <path fill-rule="evenodd" clip-rule="evenodd" d="M71.9237 0.520626C68.1852 1.51508 65.3977 4.57652 64.7473 8.40255C64.5138 9.77716 64.6268 12.0978 64.9945 13.4723C65.3399 14.7633 66.4613 16.5838 67.5918 17.6879C69.3325 19.3884 70.74 20.0919 73.0512 20.416C78.0568 21.1181 82.6378 17.8382 83.9117 12.6398C84.2488 11.2645 84.1589 8.65712 83.7298 7.37201C82.9357 4.99223 81.2496 2.79175 79.3616 1.67018C77.1002 0.327365 74.2858 -0.107689 71.9237 0.520626ZM1.98085 0.646532C1.9114 0.720106 1.85442 2.78795 1.85442 5.24199V9.70358H1.03122C0.0699627 9.70358 0.00607028 9.81894 0.00236144 11.5602L0 12.6396H0.923836H1.84784L1.89319 16.3961L1.93871 20.1525H3.70883H5.47895L5.56324 16.3529L5.64753 12.5533H6.37783H7.10814L8.93171 16.1802C9.93477 18.175 10.8377 19.8996 10.9382 20.0126C11.1401 20.2397 14.3218 20.2844 14.6682 20.0651C14.8078 19.9767 14.3051 18.8005 13.0048 16.1739C11.9798 14.1035 11.1803 12.3448 11.2281 12.2655C11.2759 12.1863 11.4534 12.1215 11.6226 12.1215C12.2059 12.1215 14.6183 10.7511 15.0444 10.1778C16.1496 8.69063 16.4556 7.42728 16.169 5.53455C15.8333 3.31921 14.5765 1.86293 12.3051 1.05706C11.3032 0.701801 10.8264 0.662423 6.65904 0.590922C4.15558 0.54809 2.05031 0.573129 1.98085 0.646532ZM20.4336 0.765876C20.3908 0.8847 20.3364 2.65272 20.3126 4.69502L20.2694 8.40826L19.0051 8.4946L17.7407 8.58096V10.2217V11.8625L19.0051 11.8835L20.2694 11.9046L20.3537 16.0285L20.438 20.1525H26.3384H32.2389L32.287 18.4686L32.3353 16.7847L31.697 16.756C31.3461 16.7403 29.5037 16.7189 27.6028 16.7085L24.1468 16.6897V14.3082V11.9269L27.3499 11.8946L30.553 11.8625L30.6012 10.1823L30.6495 8.50205L27.3981 8.45523L24.1468 8.40826V6.24939V4.09052L28.1745 4.05166C30.3897 4.03043 32.2229 3.99157 32.2481 3.9653C32.2733 3.93922 32.3196 3.19969 32.3507 2.32199C32.3938 1.11061 32.3532 0.705083 32.1829 0.638073C32.0596 0.589714 29.3828 0.549989 26.2352 0.549989C21.8104 0.549989 20.494 0.599037 20.4336 0.765876ZM34.7196 0.938586C34.6452 1.1524 34.6172 1.92683 34.6576 2.65981L34.7309 3.99242L36.4409 4.04148L38.1508 4.09052L38.1945 12.0586L38.2384 20.0267L38.6159 20.1304C39.1099 20.2661 41.3345 20.2687 41.6772 20.134C41.9151 20.0406 41.9439 19.1717 41.9439 12.1063V4.18345L42.3231 4.09398C42.5318 4.04475 43.3451 3.985 44.1305 3.96116L45.5582 3.91782L45.5054 2.36395C45.4764 1.50939 45.4173 0.751711 45.3742 0.680037C45.3309 0.608535 42.9464 0.549989 40.0752 0.549989H34.855L34.7196 0.938586ZM48.4298 0.765876C48.3867 0.8847 48.332 2.92473 48.3085 5.2995L48.2656 9.61722L47.3806 9.66937L46.4955 9.72172V11.1716V12.6215L47.3806 12.6738L48.2656 12.726L48.3499 16.4392L48.4342 20.1525H50.2043H51.9745L52.0199 16.3097L52.0653 12.4669H52.7852H53.5052L55.1641 15.7916C56.0764 17.62 56.9736 19.3729 57.1573 19.6865L57.4917 20.2566L59.3339 20.2197C60.3471 20.1994 61.2039 20.1368 61.238 20.0803C61.3069 19.966 61.3273 20.0095 59.1525 15.6013C58.2926 13.8579 57.6534 12.3723 57.732 12.2996C57.8106 12.2269 58.2459 12.0415 58.6993 11.8877C60.5844 11.2479 62.124 9.7913 62.5257 8.26802C62.8393 7.0784 62.643 4.93041 62.1263 3.89657C61.2769 2.19695 59.5185 1.05931 57.2006 0.709575C55.5566 0.461563 48.5235 0.506638 48.4298 0.765876ZM84.7775 0.651197C84.7233 0.706809 84.907 1.30905 85.1859 1.98969C85.9197 3.77982 89.1346 11.5466 90.559 14.9712C91.2308 16.586 91.9482 18.3171 92.1534 18.818C92.3585 19.3188 92.57 19.7732 92.6232 19.8278C92.7606 19.9686 93.1747 19.0801 94.8469 15.0576C95.6564 13.1103 96.4552 11.2061 96.6219 10.8262C96.7886 10.4462 97.5832 8.5421 98.3876 6.59481C99.1921 4.64752 100.072 2.5605 100.342 1.95705C100.612 1.3536 100.792 0.790229 100.74 0.70491C100.629 0.52011 97.2872 0.49956 97.0366 0.682113C96.941 0.751888 96.6635 1.35309 96.4201 2.01802C94.4444 7.41379 93.839 9.08978 93.4722 10.1785C93.2401 10.8671 92.994 11.4307 92.9254 11.4307C92.8569 11.4307 91.8694 9.04089 90.7315 6.11986C89.5935 3.19884 88.5752 0.751888 88.4691 0.682113C88.2406 0.53203 84.9211 0.504221 84.7775 0.651197ZM103.912 0.690058C103.73 0.775031 103.641 1.13979 103.602 1.96379C103.51 3.91833 103.393 3.83146 106.136 3.83146C107.961 3.83146 108.484 3.88086 108.421 4.04735C108.239 4.52507 103.727 15.9674 102.996 17.8036C102.565 18.8865 102.246 19.8616 102.286 19.9706C102.391 20.2513 105.711 20.2977 105.889 20.021C105.962 19.9084 106.328 18.9981 106.703 17.9983L107.384 16.1802L110.935 16.1337L114.486 16.0871L115.211 18.0335C115.609 19.104 115.958 20.0084 115.986 20.0437C116.096 20.1813 119.522 20.2226 119.73 20.0888C119.907 19.9746 119.883 19.795 119.608 19.1858C119.323 18.5537 113.947 5.68222 112.911 3.15012C112.738 2.72786 112.407 1.98952 112.175 1.50939L111.754 0.636343L107.961 0.603702C105.875 0.585741 104.053 0.6246 103.912 0.690058ZM10.7409 4.22024C11.7352 4.50107 12.2137 4.98205 12.4859 5.97461C13.1097 8.2485 11.3369 9.48871 7.33338 9.57904L5.64753 9.61722L5.60118 6.70121L5.55481 3.78535L7.70847 3.87862C8.89293 3.93009 10.2576 4.0838 10.7409 4.22024ZM56.6339 4.09553C58.3632 4.46825 58.9707 5.1425 58.9707 6.68911C58.9707 8.61707 57.6107 9.40444 53.8711 9.64088L52.0588 9.75556V6.79342V3.83146H53.7337C54.6548 3.83146 55.9597 3.95028 56.6339 4.09553ZM76.7281 4.65891C80.6014 6.38791 81.4264 11.7871 78.3061 14.984C77.2719 16.0434 76.0525 16.5182 74.3682 16.5175C73.1336 16.5169 72.8065 16.4499 72.008 16.0342C68.9184 14.4263 67.6452 10.8346 69.0453 7.67701C70.0703 5.36565 72.2026 4.09312 74.7896 4.24907C75.4436 4.28863 76.3077 4.47117 76.7281 4.65891ZM112.039 9.05591C112.565 10.5046 113.02 11.8452 113.049 12.0351C113.1 12.3635 112.995 12.383 110.934 12.4291L108.764 12.4774L108.881 12.0008C108.946 11.7384 109.363 10.5509 109.809 9.36162C110.254 8.17234 110.671 7.02452 110.734 6.8107C110.798 6.59688 110.902 6.42209 110.966 6.42209C111.031 6.42209 111.513 7.6074 112.039 9.05591Z" fill="white"/>
  </g>
  <defs>
    <clipPath id="clip0_701_8336">
      <rect width="120" height="21" fill="white"/>
    </clipPath>
  </defs>
</svg>
