<svg width="103" height="18" viewBox="0 0 103 18" fill="none" xmlns="http://www.w3.org/2000/svg">
<g id="Logo">
<g id="Logo_2">
<path d="M19.0825 3.23389H16.6512V15.5631H19.0825V3.23389Z" fill="#191919"/>
<path d="M13.8583 3.92379H11.427V16.2528H13.8583V3.92379Z" fill="#191919"/>
<path d="M8.63406 4.694H6.20273V17.0253H8.63406V4.694Z" fill="#191919"/>
<path d="M3.40984 5.47277H0.978516L0.978525 17.8056H3.40985L3.40984 5.47277Z" fill="#191919"/>
</g>
<g id="Dolyame kern">
<path d="M83.2944 9.80833L79.3797 5.45574H77.0911V15.5335H79.4806V9.10369L83.0546 12.9131H83.4962L87.0089 9.10369V15.5335H89.3984V5.45574H87.1098L83.2944 9.80833Z" fill="#191919"/>
<path d="M100.782 5.45574L94.8598 12.0059V5.45574H92.4703V15.5335H94.6595L100.582 8.98332V15.5335H102.972V5.45574H100.782Z" fill="#191919"/>
<path d="M64.2205 9.14333C64.2205 10.7478 65.0979 12.0118 66.4448 12.5417L63.9192 15.5335H66.844L69.1414 12.8118H71.6274V15.5335H74.0169V5.45574H67.9335C65.6653 5.45574 64.2205 7.00741 64.2205 9.14333ZM71.6289 7.67534V10.6554H68.3766C67.2915 10.6554 66.7094 10.0505 66.7094 9.16388C66.7094 8.27721 67.312 7.6724 68.3766 7.6724L71.6289 7.67534Z" fill="#191919"/>
<path d="M53.1166 7.47129C52.9703 10.9372 52.2391 13.1744 50.8075 13.1744H50.4492V15.5937L50.8309 15.6142C53.7015 15.7742 55.2882 13.2552 55.5485 7.75314H59.3243V15.5335H61.7094V5.45574H53.197L53.1166 7.47129Z" fill="#191919"/>
<path d="M44.1216 5.31494C40.8898 5.31494 38.5646 7.55215 38.5646 10.494C38.5646 13.5371 41.0945 15.6951 44.1216 15.6951C47.2745 15.6951 49.724 13.4168 49.724 10.494C49.724 7.57124 47.2745 5.31494 44.1216 5.31494ZM44.1216 13.2758C42.2951 13.2758 41.0506 12.0868 41.0506 10.494C41.0506 8.8616 42.2966 7.70483 44.1216 7.70483C45.9467 7.70483 47.2335 8.91445 47.2335 10.494C47.2335 12.0736 45.9291 13.2758 44.1216 13.2758Z" fill="#191919"/>
<path d="M36.0304 5.47475H27.5969L27.5165 7.4903C27.3965 10.394 26.639 13.1553 25.2074 13.1949L24.5449 13.2155V17.8113L26.9549 17.8065V15.5349H35.327V17.8065H37.7574V13.1949H36.0304V5.47475ZM33.6409 13.1949H28.5416C29.4044 11.8855 29.8665 9.99028 29.9469 7.77362H33.6409V13.1949Z" fill="#191919"/>
</g>
</g>
</svg>
