<svg width="18" height="18" viewBox="0 0 18 18" fill="none" xmlns="http://www.w3.org/2000/svg">
<g id="Group">
<path id="Path" fill-rule="evenodd" clip-rule="evenodd" d="M10.5 10.5H12C12.414 10.5 12.75 10.836 12.75 11.25V14.25C12.75 14.664 12.414 15 12 15H10.5C10.086 15 9.75 14.664 9.75 14.25V11.25C9.75 10.836 10.086 10.5 10.5 10.5Z" stroke="#191919" stroke-linecap="round" stroke-linejoin="round"/>
<path id="Path_2" d="M15.75 12.75H12.75" stroke="#191919" stroke-linecap="round" stroke-linejoin="round"/>
<g id="Group_2">
<path id="Path_3" d="M9.75 12.75H2.25" stroke="#191919" stroke-linecap="round" stroke-linejoin="round"/>
<path id="Path_4" fill-rule="evenodd" clip-rule="evenodd" d="M7.5 7.5H6C5.586 7.5 5.25 7.164 5.25 6.75V3.75C5.25 3.336 5.586 3 6 3H7.5C7.914 3 8.25 3.336 8.25 3.75V6.75C8.25 7.164 7.914 7.5 7.5 7.5Z" stroke="#191919" stroke-linecap="round" stroke-linejoin="round"/>
<path id="Path_5" d="M2.25 5.25H5.25" stroke="#191919" stroke-linecap="round" stroke-linejoin="round"/>
<path id="Path_6" d="M8.25 5.25H15.75" stroke="#191919" stroke-linecap="round" stroke-linejoin="round"/>
</g>
</g>
</svg>
