<svg width="107" height="110" viewBox="0 0 107 110" fill="none" xmlns="http://www.w3.org/2000/svg">
<g id="Frame">
<path id="Vector" d="M65.8066 0.131104C65.8066 0.131104 67.9885 15.5789 80.8181 15.7971C93.6476 16.0153 101.328 17.1499 105.735 31.2449C106.172 45.6017 105.735 108.266 105.735 108.266" stroke="#191919" stroke-width="1.5" stroke-miterlimit="10"/>
<path id="Vector_2" d="M40.1894 0.131104C40.1894 0.131104 39.6221 15.448 25.7889 15.8844C11.9557 16.3207 4.75549 18.6772 1.35174 30.8958C0.784447 43.9871 1.35174 108.266 1.35174 108.266" stroke="#191919" stroke-width="1.5" stroke-miterlimit="10"/>
<path id="Vector_3" d="M46.2967 21.3827C40.5375 17.1514 33.4264 15.1795 26.3105 15.8407" stroke="#191919" stroke-width="1.5" stroke-miterlimit="10"/>
<path id="Vector_4" d="M60.7012 21.3823C62.9591 19.2778 65.631 17.6671 68.5462 16.6527C71.4614 15.6384 74.556 15.2428 77.6327 15.4912" stroke="#191919" stroke-width="1.5" stroke-miterlimit="10"/>
<path id="Vector_5" d="M24.3086 15.928V35.6523C24.3086 35.6523 45.3857 44.0307 49.2258 59.9586" stroke="#191919" stroke-width="1.5" stroke-miterlimit="10"/>
<path id="Vector_6" d="M16.3223 52.322C16.3223 52.322 19.8569 40.0598 24.4825 35.6523" stroke="#191919" stroke-width="1.5" stroke-miterlimit="10"/>
<path id="Vector_7" d="M81.7793 16.3206V35.6521C81.7793 35.6521 91.0305 46.5616 90.5069 53.1073" stroke="#191919" stroke-width="1.5" stroke-miterlimit="10"/>
<path id="Vector_8" d="M58.2129 59.9586C58.2129 59.9586 67.6387 40.3216 81.9082 35.6523" stroke="#191919" stroke-width="1.5" stroke-miterlimit="10"/>
<path id="Vector_9" d="M14.4043 66.3293C14.4043 66.3293 22.4337 89.0647 54.1147 72.3077C82.7848 89.2828 92.2106 66.3293 92.2106 66.3293" stroke="#191919" stroke-width="1.5" stroke-miterlimit="10"/>
<path id="Vector_10" d="M20.204 80.9046L19.6367 73.6171" stroke="#191919" stroke-width="1.5" stroke-miterlimit="10"/>
<path id="Vector_11" d="M86.3555 80.9046L86.7046 73.6171" stroke="#191919" stroke-width="1.5" stroke-miterlimit="10"/>
<path id="Vector_12" d="M22.1227 92.7305C22.6075 97.695 22.4019 102.703 21.5117 107.611" stroke="#191919" stroke-width="1.5" stroke-miterlimit="10"/>
<path id="Vector_13" d="M84.0431 92.7305C84.0431 92.7305 82.9958 103.334 85.8759 107.611" stroke="#191919" stroke-width="1.5" stroke-miterlimit="10"/>
<path id="Vector_14" d="M97.7022 47.7832C97.7022 47.7832 113.586 64.2783 54.7626 64.4092C-4.06124 64.5401 8.72463 47.7832 8.72463 47.7832" stroke="#191919" stroke-width="1.5" stroke-miterlimit="10"/>
<path id="Vector_15" d="M38.0557 59.3474L37.7066 68.0313L24.6152 62.6639L38.0557 59.3474Z" fill="#191919" stroke="#191919" stroke-width="1.5" stroke-miterlimit="10"/>
<path id="Vector_16" d="M98.4874 74.3154C98.4874 74.3154 114.372 90.8105 55.5477 90.9415C-3.27609 91.0724 9.50979 74.3154 9.50979 74.3154" stroke="#191919" stroke-width="1.5" stroke-miterlimit="10"/>
<path id="Vector_17" d="M38.8389 85.7485L38.4462 94.6507L25.3984 89.1523L38.8389 85.7485Z" fill="#191919" stroke="#191919" stroke-width="1.5" stroke-miterlimit="10"/>
</g>
</svg>
