<?xml version="1.0" encoding="utf-8"?><svg xmlns="http://www.w3.org/2000/svg" xmlns:xlink="http://www.w3.org/1999/xlink"><symbol viewBox="0 0 18 18" id="3-col" xmlns="http://www.w3.org/2000/svg"><path d="M3 0h1.5v18H3V0zM8.5 0H10v18H8.5V0zM14 0h1.5v18H14V0z"/></symbol><symbol viewBox="0 0 18 18" id="4-col" xmlns="http://www.w3.org/2000/svg"><path d="M0 0h1.5v18H0V0zM5.5 0H7v18H5.5V0zM11 0h1.5v18H11V0zM16.5 0H18v18h-1.5V0z"/></symbol><symbol viewBox="0 0 16 16" id="arrow-down" xmlns="http://www.w3.org/2000/svg"><path d="M16 4.121l-1.7.629a9.6 9.6 0 00-5.671 5.672L8 12.12l-.629-1.7A9.6 9.6 0 001.7 4.75L0 4.12c2.579-.954 6.77 1.13 8 3.59 1.23-2.46 5.421-4.544 8-3.59z"/></symbol><symbol viewBox="0 0 10 10" id="arrow-right" xmlns="http://www.w3.org/2000/svg"><path d="M2.575 0l.393 1.062a6 6 0 003.545 3.545L7.575 5l-1.062.393a6 6 0 00-3.545 3.545L2.575 10c-.596-1.612.707-4.231 2.244-5-1.537-.769-2.84-3.388-2.244-5z" opacity=".5"/></symbol><symbol viewBox="0 0 8 14" id="arrow-up" xmlns="http://www.w3.org/2000/svg"><path d="M7.998 4.55l-.793-.294A4.48 4.48 0 014.558 1.61L4.265.817l-.294.793a4.48 4.48 0 01-2.646 2.646l-.793.294c1.203.445 3.16-.528 3.733-1.675.574 1.147 2.53 2.12 3.733 1.675z"/><path d="M4.266 2.367V11.3h-4"/></symbol><symbol viewBox="0 0 14 14" id="bonus" xmlns="http://www.w3.org/2000/svg"><circle cx="7" cy="7" r="7"/><path clip-rule="evenodd" d="M4.972 3.656c-.023.024-.042.707-.042 1.516v1.473H4.66c-.318 0-.339.038-.34.612v.357h.609l.015 1.24.015 1.239h1.168l.028-1.254.028-1.254h.482l.602 1.197c.33.658.629 1.227.662 1.264.067.075 1.116.09 1.23.018.047-.03-.12-.417-.548-1.284-.338-.683-.602-1.264-.586-1.29.015-.026.074-.047.13-.047.192 0 .988-.453 1.129-.642.365-.49.466-.908.371-1.532-.11-.731-.525-1.212-1.275-1.478-.33-.117-.488-.13-1.863-.153-.826-.015-1.521-.006-1.544.018zm2.89 1.18c.329.092.487.25.577.578.205.75-.38 1.16-1.7 1.19l-.557.012-.015-.962-.016-.962.711.03c.391.017.841.068 1 .113z"/></symbol><symbol viewBox="0 0 26 26" id="cart" xmlns="http://www.w3.org/2000/svg"><g><path d="M9.499 7.998v-.5A3.501 3.501 0 0113 3.996v0a3.501 3.501 0 013.502 3.502v.5"/><path clip-rule="evenodd" d="M7.462 7.998a2 2 0 00-1.996 1.876l-.46 7.347A4.502 4.502 0 009.5 22.004h7.003a4.502 4.502 0 004.493-4.783l-.46-7.347a2 2 0 00-1.996-1.876H7.462z"/></g></symbol><symbol viewBox="0 0 14 14" id="chain" xmlns="http://www.w3.org/2000/svg"><g><path d="M10.886 7.003L12 5.89a2.75 2.75 0 10-3.888-3.887L5.729 4.384a2.748 2.748 0 000 3.888l-.007.007c.222.218.48.396.762.526"/><path d="M7.529 5.184c.282.13.54.308.762.526a2.748 2.748 0 010 3.888l-2.383 2.383A2.75 2.75 0 012.02 8.093l1.114-1.114"/></g></symbol><symbol viewBox="0 0 14 14" id="clear" xmlns="http://www.w3.org/2000/svg"><path d="M11.084 2.917l-8.167 8.166m8.167 0L2.917 2.917"/></symbol><symbol viewBox="0 0 24 24" id="close" xmlns="http://www.w3.org/2000/svg"><path d="M19 5L5 19m14 0L5 5" opacity=".5"/></symbol><symbol viewBox="0 0 24 24" id="close-big" xmlns="http://www.w3.org/2000/svg"><path d="M19 5L5 19m14 0L5 5"/></symbol><symbol viewBox="0 0 10 11" id="cross" xmlns="http://www.w3.org/2000/svg"><path d="M9.3.901L.433 9.768m0-8.867L9.3 9.768"/></symbol><symbol viewBox="0 0 20 18" id="heart" xmlns="http://www.w3.org/2000/svg"><path clip-rule="evenodd" d="M13.7 1C16.87 1 19 3.98 19 6.76 19 12.39 10.16 17 10 17c-.16 0-9-4.61-9-10.24C1 3.98 3.13 1 6.3 1c1.82 0 3.01.91 3.7 1.71.69-.8 1.88-1.71 3.7-1.71z"/></symbol><symbol viewBox="0 0 32 32" id="intro-arrow" xmlns="http://www.w3.org/2000/svg"><path d="M8.242 0L9.5 3.399a19.2 19.2 0 0011.343 11.343L24.242 16l-3.399 1.258A19.2 19.2 0 009.5 28.6L8.242 32c-1.908-5.157 2.261-13.54 7.18-16-4.918-2.46-9.088-10.843-7.18-16z"/></symbol><symbol viewBox="0 0 30 2" id="line" xmlns="http://www.w3.org/2000/svg"><path d="M0 .5h30V2H0z"/></symbol><symbol viewBox="0 0 47 19" id="link-arrow" xmlns="http://www.w3.org/2000/svg"><path d="M39.218 1.612l.58 1.57a8.866 8.866 0 005.24 5.237L46.606 9l-1.57.58A8.866 8.866 0 0039.8 14.82l-.58 1.57c-.882-2.382 1.043-6.253 3.315-7.389-2.272-1.136-4.197-5.007-3.316-7.388z"/><path d="M43.5 9H1v7.5"/></symbol><symbol viewBox="0 0 24 24" id="loader" xmlns="http://www.w3.org/2000/svg"><path d="M11.5 1.907a10.14 10.14 0 0110.14 10.14M11.5 22.187a10.14 10.14 0 01-10.14-10.14"/></symbol><symbol viewBox="0 0 24 24" id="loc" xmlns="http://www.w3.org/2000/svg"><path clip-rule="evenodd" d="M14.574 20.111l5.315-14.34c.39-1.052-.634-2.076-1.686-1.686L3.856 9.404c-1.21.449-1.114 2.189.136 2.503l6.464 1.624 1.614 6.443c.314 1.251 2.055 1.346 2.504.137v0z"/></symbol><symbol id="logo" viewBox="0 0 630.3 102.2" xml:space="preserve" xmlns="http://www.w3.org/2000/svg"><style>.st0{fill:#fff}</style><path d="M149.6 2.4v6.5h-45.5v29.7h44.1V45h-44.1v48.9h45.5v6.5h-60v-98h60zM231.5 2.4v6.5h-23.7v91.5h-14.4V8.9h-23.9V2.4h62zM479.7 79.1l32.2-76.7h-7.5L476.1 70zM477.4 98.5l-.2-.5-38.6-95.6h-15.1l39.1 98h15.6l-.8-1.9zM557.9 2.4h-15.4l2.3 5.6 10.4 24.6 15 35.2.1.1 13.8 32.5h15.2zM415.2 37.5c-1.2-4.3-3-8.4-5.3-12.2-2.3-3.8-5-7.2-8.2-10.3C388.3 2 369.1-3 351 1.8c-4.4 1.2-8.6 2.9-12.5 5.2-3.1 1.8-6 3.9-8.6 6.3l4.4 10.8c.9-1.7 2-3.3 3.1-4.8 3.1-4 7-7.2 11.5-9.4 10.2-4.6 21.8-4.6 32 0 4.5 2.2 8.5 5.4 11.5 9.4 3.2 4.2 5.6 9 7 14.2 1.6 5.7 2.4 11.6 2.4 17.5 0 6-.8 11.9-2.4 17.6-1.5 5.2-3.9 10-7.1 14.3-3.1 4-7 7.3-11.6 9.6-4.9 2.4-10.4 3.6-15.8 3.5-.5 0-1-.1-1.5-.1l2.6 6.4c4.3-.1 8.6-.7 12.7-1.8 4.4-1.2 8.5-2.9 12.5-5.2 7.7-4.4 14.2-10.8 18.7-18.4 2.3-3.8 4-8 5.3-12.3 1.3-4.4 1.9-9 1.9-13.6s-.6-9.1-1.9-13.5zM34.2 62c4.7-.7 9.2-2.3 13.2-4.8 3.2-2 6-4.6 8.2-7.6 1.9-2.6 3.3-5.6 4.2-8.7.7-2.6 1.1-5.4 1.2-8.1 0-2.1-.2-4.1-.5-6.2-.4-2.3-1-4.5-1.9-6.6-1-2.4-2.4-4.6-4-6.5-1.9-2.3-4.2-4.2-6.8-5.6-3.2-1.8-6.7-3.1-10.4-4-4.7-1.1-9.6-1.6-14.4-1.5H0v6.5h14.9c3.8 0 7.6.3 11.3.9 3.5.5 6.8 1.7 9.8 3.5 2.9 1.7 5.3 4.2 7 7.2 1.8 3.1 2.6 7.1 2.6 12 .1 3.8-.6 7.6-2.2 11.1-1.4 3-3.5 5.5-6.2 7.4-2.9 2-6.3 3.4-9.8 4.2-4.2.9-8.5 1.3-12.8 1.3h-2.4L17 63l27.7 37.3h17.7L34.2 62zM286.8 62c4.7-.7 9.2-2.3 13.2-4.8 3.2-2 6-4.6 8.2-7.6 1.9-2.6 3.3-5.6 4.1-8.7.7-2.6 1.1-5.4 1.2-8.1 0-2.1-.2-4.1-.5-6.2-.4-2.3-1-4.5-2-6.6-1-2.4-2.4-4.6-4-6.5-1.9-2.3-4.2-4.2-6.8-5.6-3.2-1.8-6.7-3.1-10.4-4-4.7-1.1-9.6-1.6-14.5-1.5h-22.9v6.5h14.9c3.8 0 7.6.3 11.3.9 3.5.5 6.8 1.7 9.9 3.5 2.9 1.7 5.3 4.2 7 7.2 1.8 3.1 2.6 7.1 2.6 12 .1 3.8-.6 7.6-2.2 11.1-1.4 3-3.5 5.5-6.2 7.4-2.9 2-6.3 3.4-9.8 4.2-4.2.9-8.5 1.3-12.8 1.3h-2.4l4.8 6.5 27.7 37.3h17.7L286.8 62zM519.9 81.2h45.9l2.7 6.5h-51.3z"/><circle cx="621.3" cy="93.3" r="9"/></symbol><symbol viewBox="0 0 13 13" id="minus" xmlns="http://www.w3.org/2000/svg"><path d="M11.916 6.007v.985H1.083v-.985z"/></symbol><symbol viewBox="0 0 13 13" id="plus" xmlns="http://www.w3.org/2000/svg"><g><path d="M6.008 1.083h.985v10.834h-.985V1.083z"/><path d="M11.917 6.008v.984H1.083v-.984h10.834z"/></g></symbol><symbol viewBox="0 0 34 34" id="quotes" xmlns="http://www.w3.org/2000/svg"><path d="M5.195 14.055c0-1.72.352-3.268 1.055-4.649.73-1.38 1.784-2.474 3.164-3.281 1.38-.833 3.034-1.276 4.961-1.328v4.062c-1.64 0-2.865.456-3.672 1.368-.781.911-1.172 2.187-1.172 3.828v.937h4.453v8.281H5.195v-9.218zm21.64-5.196c-1.64 0-2.864.456-3.67 1.368-.782.911-1.173 2.187-1.173 3.828v.937h4.453v8.281h-8.789v-9.218c0-1.72.352-3.268 1.055-4.649.73-1.38 1.784-2.474 3.164-3.281 1.38-.833 3.034-1.276 4.96-1.328v4.062z"/></symbol><symbol viewBox="0 0 18 18" id="search" xmlns="http://www.w3.org/2000/svg"><g><circle cx="8.059" cy="8.059" r="7.062"/><path d="M17.004 17.004l-3.952-3.952"/></g></symbol><symbol viewBox="0 0 20 20" id="star" xmlns="http://www.w3.org/2000/svg"><path d="M10.418 16.667l.247-.669A9.028 9.028 0 0116 10.664l.669-.247-.669-.248a9.028 9.028 0 01-5.334-5.333l-.247-.67-.247.67a9.028 9.028 0 01-5.334 5.333l-.669.248.669.247a9.028 9.028 0 015.334 5.334l.247.669z"/></symbol><symbol viewBox="0 0 24 24" id="tg" xmlns="http://www.w3.org/2000/svg"><path clip-rule="evenodd" d="M4.968 11.189C8.75 9.54 11.272 8.455 12.533 7.93c3.603-1.498 4.351-1.758 4.84-1.767.107-.002.346.025.502.151.131.106.167.25.184.351.018.101.04.331.022.51-.195 2.052-1.04 7.03-1.47 9.327-.181.972-.54 1.298-.886 1.33-.753.07-1.325-.498-2.055-.976-1.142-.749-1.787-1.214-2.895-1.945-1.28-.844-.45-1.308.28-2.066.19-.198 3.51-3.217 3.574-3.49.008-.035.015-.163-.06-.23-.076-.068-.188-.045-.27-.026-.114.026-1.937 1.231-5.47 3.616-.518.356-.987.529-1.407.52-.464-.01-1.354-.262-2.017-.477-.812-.264-1.458-.404-1.402-.852.03-.234.351-.473.965-.717z"/></symbol><symbol viewBox="0 0 18 20" id="user-lk" xmlns="http://www.w3.org/2000/svg"><g><path d="M11.475 2.525a3.5 3.5 0 11-4.95 4.95 3.5 3.5 0 014.95-4.95"/><path clip-rule="evenodd" d="M1 17v1a1 1 0 001 1h14a1 1 0 001-1v-1c0-3.026-3.952-6-8-6s-8 2.974-8 6z"/></g></symbol><symbol viewBox="0 0 24 24" id="vk" xmlns="http://www.w3.org/2000/svg"><path d="M12.672 16.16c-4.504 0-7.238-3.126-7.344-8.32H7.61c.072 3.816 1.807 5.434 3.138 5.764V7.841h2.187v3.291c1.283-.142 2.625-1.64 3.078-3.291h2.15c-.344 2.032-1.806 3.53-2.84 4.147 1.034.5 2.698 1.807 3.34 4.171h-2.365c-.5-1.58-1.724-2.805-3.363-2.97v2.97h-.262z"/></symbol><symbol viewBox="0 0 24 24" id="wp" xmlns="http://www.w3.org/2000/svg"><path clip-rule="evenodd" d="M5.29 18.741l.947-3.461a6.669 6.669 0 01-.892-3.34c.002-3.684 3-6.681 6.683-6.681 1.788 0 3.466.696 4.728 1.96a6.64 6.64 0 011.956 4.726 6.692 6.692 0 01-6.684 6.68h-.003a6.678 6.678 0 01-3.193-.813l-3.543.93zm4.693-9.883c.119.005.25.01.375.289.086.19.229.543.343.825.085.209.154.379.172.415.042.083.07.18.014.292l-.024.049a.935.935 0 01-.143.23 6.29 6.29 0 00-.087.104c-.057.069-.114.138-.163.188-.084.083-.171.174-.074.34.098.168.433.714.93 1.157.534.476.997.678 1.232.78.046.02.083.035.11.049.167.083.264.07.362-.042a9.74 9.74 0 00.529-.655c.111-.167.222-.14.375-.083.153.055.974.46 1.141.543l.092.045c.117.056.195.094.229.15.041.07.041.404-.098.794s-.82.766-1.127.793l-.089.01c-.283.033-.64.075-1.915-.427-1.57-.62-2.605-2.155-2.817-2.47l-.035-.051-.002-.003c-.09-.12-.68-.909-.68-1.724 0-.769.378-1.172.551-1.357l.033-.036a.613.613 0 01.446-.209l.32.004z"/></symbol><symbol viewBox="0 0 24 24" id="yandex" xmlns="http://www.w3.org/2000/svg"><path d="M15.5 18h-2.102V6.757h-.94c-1.718 0-2.617.929-2.617 2.314 0 1.572.621 2.3 1.904 3.229l1.058.771L9.76 18H7.5l2.737-4.4c-1.573-1.214-2.46-2.4-2.46-4.4 0-2.5 1.614-4.2 4.668-4.2h3.042v13h.013z"/></symbol></svg>