<?xml version="1.0" encoding="utf-8"?><svg xmlns="http://www.w3.org/2000/svg" xmlns:xlink="http://www.w3.org/1999/xlink"><symbol viewBox="0 0 18 18" id="3-col" xmlns="http://www.w3.org/2000/svg"><path d="M3 0h1.5v18H3V0zM8.5 0H10v18H8.5V0zM14 0h1.5v18H14V0z"/></symbol><symbol viewBox="0 0 18 18" id="4-col" xmlns="http://www.w3.org/2000/svg"><path d="M0 0h1.5v18H0V0zM5.5 0H7v18H5.5V0zM11 0h1.5v18H11V0zM16.5 0H18v18h-1.5V0z"/></symbol><symbol viewBox="0 0 16 16" id="arrow-down" xmlns="http://www.w3.org/2000/svg"><path d="M16 4.121l-1.7.629a9.6 9.6 0 00-5.671 5.672L8 12.12l-.629-1.7A9.6 9.6 0 001.7 4.75L0 4.12c2.579-.954 6.77 1.13 8 3.59 1.23-2.46 5.421-4.544 8-3.59z"/></symbol><symbol viewBox="0 0 10 10" id="arrow-right" xmlns="http://www.w3.org/2000/svg"><path d="M2.575 0l.393 1.062a6 6 0 003.545 3.545L7.575 5l-1.062.393a6 6 0 00-3.545 3.545L2.575 10c-.596-1.612.707-4.231 2.244-5-1.537-.769-2.84-3.388-2.244-5z" opacity=".5"/></symbol><symbol viewBox="0 0 8 14" id="arrow-up" xmlns="http://www.w3.org/2000/svg"><path d="M7.998 4.55l-.793-.294A4.48 4.48 0 014.558 1.61L4.265.817l-.294.793a4.48 4.48 0 01-2.646 2.646l-.793.294c1.203.445 3.16-.528 3.733-1.675.574 1.147 2.53 2.12 3.733 1.675z"/><path d="M4.266 2.367V11.3h-4"/></symbol><symbol viewBox="0 0 14 14" id="bonus" xmlns="http://www.w3.org/2000/svg"><circle cx="7" cy="7" r="7"/><path clip-rule="evenodd" d="M4.972 3.656c-.023.024-.042.707-.042 1.516v1.473H4.66c-.318 0-.339.038-.34.612v.357h.609l.015 1.24.015 1.239h1.168l.028-1.254.028-1.254h.482l.602 1.197c.33.658.629 1.227.662 1.264.067.075 1.116.09 1.23.018.047-.03-.12-.417-.548-1.284-.338-.683-.602-1.264-.586-1.29.015-.026.074-.047.13-.047.192 0 .988-.453 1.129-.642.365-.49.466-.908.371-1.532-.11-.731-.525-1.212-1.275-1.478-.33-.117-.488-.13-1.863-.153-.826-.015-1.521-.006-1.544.018zm2.89 1.18c.329.092.487.25.577.578.205.75-.38 1.16-1.7 1.19l-.557.012-.015-.962-.016-.962.711.03c.391.017.841.068 1 .113z"/></symbol><symbol viewBox="0 0 26 26" id="cart" xmlns="http://www.w3.org/2000/svg"><g><path d="M9.499 7.998v-.5A3.501 3.501 0 0113 3.996v0a3.501 3.501 0 013.502 3.502v.5"/><path clip-rule="evenodd" d="M7.462 7.998a2 2 0 00-1.996 1.876l-.46 7.347A4.502 4.502 0 009.5 22.004h7.003a4.502 4.502 0 004.493-4.783l-.46-7.347a2 2 0 00-1.996-1.876H7.462z"/></g></symbol><symbol viewBox="0 0 14 14" id="chain" xmlns="http://www.w3.org/2000/svg"><g><path d="M10.886 7.003L12 5.89a2.75 2.75 0 10-3.888-3.887L5.729 4.384a2.748 2.748 0 000 3.888l-.007.007c.222.218.48.396.762.526"/><path d="M7.529 5.184c.282.13.54.308.762.526a2.748 2.748 0 010 3.888l-2.383 2.383A2.75 2.75 0 012.02 8.093l1.114-1.114"/></g></symbol><symbol viewBox="0 0 14 14" id="clear" xmlns="http://www.w3.org/2000/svg"><path d="M11.084 2.917l-8.167 8.166m8.167 0L2.917 2.917"/></symbol><symbol viewBox="0 0 24 24" id="close" xmlns="http://www.w3.org/2000/svg"><path d="M19 5L5 19m14 0L5 5" opacity=".5"/></symbol><symbol viewBox="0 0 24 24" id="close-big" xmlns="http://www.w3.org/2000/svg"><path d="M19 5L5 19m14 0L5 5"/></symbol><symbol viewBox="0 0 10 11" id="cross" xmlns="http://www.w3.org/2000/svg"><path d="M9.3.901L.433 9.768m0-8.867L9.3 9.768"/></symbol><symbol viewBox="0 0 20 18" id="heart" xmlns="http://www.w3.org/2000/svg"><path clip-rule="evenodd" d="M13.7 1C16.87 1 19 3.98 19 6.76 19 12.39 10.16 17 10 17c-.16 0-9-4.61-9-10.24C1 3.98 3.13 1 6.3 1c1.82 0 3.01.91 3.7 1.71.69-.8 1.88-1.71 3.7-1.71z"/></symbol><symbol viewBox="0 0 32 32" id="intro-arrow" xmlns="http://www.w3.org/2000/svg"><path d="M8.242 0L9.5 3.399a19.2 19.2 0 0011.343 11.343L24.242 16l-3.399 1.258A19.2 19.2 0 009.5 28.6L8.242 32c-1.908-5.157 2.261-13.54 7.18-16-4.918-2.46-9.088-10.843-7.18-16z"/></symbol><symbol viewBox="0 0 47 19" id="link-arrow" xmlns="http://www.w3.org/2000/svg"><path d="M39.218 1.612l.58 1.57a8.866 8.866 0 005.24 5.237L46.606 9l-1.57.58A8.866 8.866 0 0039.8 14.82l-.58 1.57c-.882-2.382 1.043-6.253 3.315-7.389-2.272-1.136-4.197-5.007-3.316-7.388z"/><path d="M43.5 9H1v7.5"/></symbol><symbol viewBox="0 0 24 24" id="loader" xmlns="http://www.w3.org/2000/svg"><path d="M11.5 1.907a10.14 10.14 0 0110.14 10.14M11.5 22.187a10.14 10.14 0 01-10.14-10.14"/></symbol><symbol viewBox="0 0 24 24" id="loc" xmlns="http://www.w3.org/2000/svg"><path clip-rule="evenodd" d="M14.574 20.111l5.315-14.34c.39-1.052-.634-2.076-1.686-1.686L3.856 9.404c-1.21.449-1.114 2.189.136 2.503l6.464 1.624 1.614 6.443c.314 1.251 2.055 1.346 2.504.137v0z"/></symbol><symbol viewBox="0 0 120 21" id="logo" xmlns="http://www.w3.org/2000/svg"><g clip-path="url(#clip0_701_8336)"><path clip-rule="evenodd" d="M71.924.52a9.826 9.826 0 00-7.177 7.883c-.233 1.374-.12 3.695.248 5.07.345 1.29 1.466 3.11 2.597 4.215 1.74 1.7 3.148 2.404 5.46 2.728 5.005.702 9.586-2.578 10.86-7.776.337-1.376.247-3.983-.182-5.268-.794-2.38-2.48-4.58-4.368-5.702C77.1.327 74.286-.108 71.924.52zM1.98.648c-.07.073-.127 2.14-.127 4.595v4.462h-.823c-.961 0-1.025.115-1.029 1.856L0 12.64h1.848l.045 3.756.046 3.756h3.54l.084-3.8.085-3.799h1.46l1.824 3.627c1.003 1.995 1.906 3.72 2.006 3.833.202.227 3.384.271 3.73.052.14-.088-.363-1.265-1.663-3.891-1.025-2.07-1.825-3.83-1.777-3.909.048-.079.225-.144.395-.144.583 0 2.995-1.37 3.421-1.943 1.106-1.487 1.412-2.75 1.125-4.643-.336-2.216-1.593-3.672-3.864-4.478C11.303.702 10.826.662 6.66.591 4.156.548 2.05.573 1.981.647zm18.453.119c-.043.119-.098 1.887-.121 3.929l-.044 3.713-1.264.087-1.264.086v3.282l1.264.02 1.264.022.085 4.124.084 4.123h11.8l.049-1.683.048-1.684-.638-.029c-.35-.016-2.193-.037-4.094-.047l-3.456-.02V11.928l3.203-.032 3.203-.032.048-1.68.049-1.68-3.252-.048-3.251-.047V4.091l4.027-.04c2.216-.02 4.049-.06 4.074-.086.025-.026.072-.765.103-1.643.043-1.211.002-1.617-.168-1.684C32.06.59 29.383.55 26.235.55c-4.425 0-5.741.049-5.801.216zM34.72.939c-.075.213-.103.988-.062 1.72l.073 1.333 1.71.05 1.71.049.043 7.968.044 7.968.378.103c.494.136 2.718.139 3.061.004.238-.093.267-.962.267-8.028V4.183l.38-.089c.208-.05 1.021-.109 1.806-.133l1.428-.043-.053-1.554c-.029-.855-.088-1.612-.13-1.684-.044-.071-2.429-.13-5.3-.13h-5.22l-.135.389zM48.43.766c-.043.119-.098 2.159-.121 4.534l-.043 4.317-.885.052-.886.053v2.9l.886.052.885.052.084 3.713.084 3.713h3.54l.046-3.842.045-3.843h1.44l1.66 3.325c.911 1.828 1.809 3.58 1.992 3.894l.335.57 1.842-.036c1.013-.02 1.87-.083 1.904-.14.069-.114.09-.07-2.085-4.479-.86-1.743-1.5-3.229-1.421-3.301.079-.073.514-.259.967-.412 1.885-.64 3.425-2.097 3.827-3.62.313-1.19.117-3.338-.4-4.371-.85-1.7-2.607-2.838-4.925-3.187-1.644-.248-8.678-.203-8.771.056zM84.778.65c-.055.056.129.658.408 1.339.734 1.79 3.949 9.557 5.373 12.981.672 1.615 1.39 3.346 1.594 3.847.206.5.417.955.47 1.01.138.14.552-.748 2.224-4.77.81-1.948 1.608-3.852 1.775-4.232.167-.38.961-2.284 1.766-4.231a274.668 274.668 0 011.954-4.638c.27-.603.45-1.167.398-1.252C100.629.52 97.287.5 97.037.682c-.096.07-.374.671-.617 1.336-1.976 5.396-2.581 7.072-2.948 8.16-.232.69-.478 1.253-.547 1.253-.068 0-1.056-2.39-2.194-5.311C89.594 3.199 88.575.752 88.47.682c-.228-.15-3.548-.178-3.691-.03zm19.134.04c-.182.084-.271.449-.31 1.273-.092 1.954-.209 1.867 2.534 1.867 1.825 0 2.348.05 2.285.216-.182.478-4.694 11.92-5.425 13.757-.431 1.083-.75 2.058-.71 2.167.105.28 3.425.327 3.603.05.073-.113.439-1.023.814-2.023l.681-1.818 3.551-.046 3.551-.047.725 1.947c.398 1.07.747 1.974.775 2.01.11.137 3.536.179 3.744.045.177-.114.153-.294-.122-.903-.285-.632-5.661-13.504-6.697-16.036a35.724 35.724 0 00-.736-1.64l-.421-.874-3.793-.032c-2.086-.018-3.908.02-4.049.086zM10.741 4.22c.994.28 1.473.761 1.745 1.754.624 2.274-1.15 3.514-5.153 3.604l-1.685.038L5.6 6.701l-.046-2.916 2.153.094c1.185.051 2.55.205 3.033.341zm45.893-.125c1.73.372 2.337 1.046 2.337 2.593 0 1.928-1.36 2.715-5.1 2.952l-1.812.115V3.83h1.675c.92 0 2.226.12 2.9.265zm20.094.563c3.873 1.729 4.698 7.128 1.578 10.325-1.034 1.06-2.254 1.534-3.938 1.533-1.234 0-1.561-.067-2.36-.483-3.09-1.608-4.363-5.2-2.963-8.357 1.025-2.311 3.158-3.584 5.745-3.428.654.04 1.518.222 1.938.41zm35.311 4.397c.526 1.449.981 2.79 1.01 2.98.051.328-.054.347-2.115.393l-2.17.048.117-.476c.065-.263.482-1.45.928-2.64.445-1.189.862-2.336.925-2.55.064-.214.168-.389.232-.389.065 0 .547 1.185 1.073 2.634z"/></g></symbol><symbol viewBox="0 0 13 13" id="minus" xmlns="http://www.w3.org/2000/svg"><path d="M11.916 6.007v.985H1.083v-.985z"/></symbol><symbol viewBox="0 0 13 13" id="plus" xmlns="http://www.w3.org/2000/svg"><g><path d="M6.008 1.083h.985v10.834h-.985V1.083z"/><path d="M11.917 6.008v.984H1.083v-.984h10.834z"/></g></symbol><symbol viewBox="0 0 34 34" id="quotes" xmlns="http://www.w3.org/2000/svg"><path d="M5.195 14.055c0-1.72.352-3.268 1.055-4.649.73-1.38 1.784-2.474 3.164-3.281 1.38-.833 3.034-1.276 4.961-1.328v4.062c-1.64 0-2.865.456-3.672 1.368-.781.911-1.172 2.187-1.172 3.828v.937h4.453v8.281H5.195v-9.218zm21.64-5.196c-1.64 0-2.864.456-3.67 1.368-.782.911-1.173 2.187-1.173 3.828v.937h4.453v8.281h-8.789v-9.218c0-1.72.352-3.268 1.055-4.649.73-1.38 1.784-2.474 3.164-3.281 1.38-.833 3.034-1.276 4.96-1.328v4.062z"/></symbol><symbol viewBox="0 0 18 18" id="search" xmlns="http://www.w3.org/2000/svg"><g><circle cx="8.059" cy="8.059" r="7.062"/><path d="M17.004 17.004l-3.952-3.952"/></g></symbol><symbol viewBox="0 0 20 20" id="star" xmlns="http://www.w3.org/2000/svg"><path d="M10.418 16.667l.247-.669A9.028 9.028 0 0116 10.664l.669-.247-.669-.248a9.028 9.028 0 01-5.334-5.333l-.247-.67-.247.67a9.028 9.028 0 01-5.334 5.333l-.669.248.669.247a9.028 9.028 0 015.334 5.334l.247.669z"/></symbol><symbol viewBox="0 0 24 24" id="tg" xmlns="http://www.w3.org/2000/svg"><path clip-rule="evenodd" d="M4.968 11.189C8.75 9.54 11.272 8.455 12.533 7.93c3.603-1.498 4.351-1.758 4.84-1.767.107-.002.346.025.502.151.131.106.167.25.184.351.018.101.04.331.022.51-.195 2.052-1.04 7.03-1.47 9.327-.181.972-.54 1.298-.886 1.33-.753.07-1.325-.498-2.055-.976-1.142-.749-1.787-1.214-2.895-1.945-1.28-.844-.45-1.308.28-2.066.19-.198 3.51-3.217 3.574-3.49.008-.035.015-.163-.06-.23-.076-.068-.188-.045-.27-.026-.114.026-1.937 1.231-5.47 3.616-.518.356-.987.529-1.407.52-.464-.01-1.354-.262-2.017-.477-.812-.264-1.458-.404-1.402-.852.03-.234.351-.473.965-.717z"/></symbol><symbol viewBox="0 0 18 20" id="user-lk" xmlns="http://www.w3.org/2000/svg"><g><path d="M11.475 2.525a3.5 3.5 0 11-4.95 4.95 3.5 3.5 0 014.95-4.95"/><path clip-rule="evenodd" d="M1 17v1a1 1 0 001 1h14a1 1 0 001-1v-1c0-3.026-3.952-6-8-6s-8 2.974-8 6z"/></g></symbol><symbol viewBox="0 0 24 24" id="vk" xmlns="http://www.w3.org/2000/svg"><path d="M12.672 16.16c-4.504 0-7.238-3.126-7.344-8.32H7.61c.072 3.816 1.807 5.434 3.138 5.764V7.841h2.187v3.291c1.283-.142 2.625-1.64 3.078-3.291h2.15c-.344 2.032-1.806 3.53-2.84 4.147 1.034.5 2.698 1.807 3.34 4.171h-2.365c-.5-1.58-1.724-2.805-3.363-2.97v2.97h-.262z"/></symbol><symbol viewBox="0 0 24 24" id="wp" xmlns="http://www.w3.org/2000/svg"><path clip-rule="evenodd" d="M5.29 18.741l.947-3.461a6.669 6.669 0 01-.892-3.34c.002-3.684 3-6.681 6.683-6.681 1.788 0 3.466.696 4.728 1.96a6.64 6.64 0 011.956 4.726 6.692 6.692 0 01-6.684 6.68h-.003a6.678 6.678 0 01-3.193-.813l-3.543.93zm4.693-9.883c.119.005.25.01.375.289.086.19.229.543.343.825.085.209.154.379.172.415.042.083.07.18.014.292l-.024.049a.935.935 0 01-.143.23 6.29 6.29 0 00-.087.104c-.057.069-.114.138-.163.188-.084.083-.171.174-.074.34.098.168.433.714.93 1.157.534.476.997.678 1.232.78.046.02.083.035.11.049.167.083.264.07.362-.042a9.74 9.74 0 00.529-.655c.111-.167.222-.14.375-.083.153.055.974.46 1.141.543l.092.045c.117.056.195.094.229.15.041.07.041.404-.098.794s-.82.766-1.127.793l-.089.01c-.283.033-.64.075-1.915-.427-1.57-.62-2.605-2.155-2.817-2.47l-.035-.051-.002-.003c-.09-.12-.68-.909-.68-1.724 0-.769.378-1.172.551-1.357l.033-.036a.613.613 0 01.446-.209l.32.004z"/></symbol></svg>