<?xml version="1.0" encoding="utf-8"?><svg xmlns="http://www.w3.org/2000/svg" xmlns:xlink="http://www.w3.org/1999/xlink"><symbol fill="none" viewBox="0 0 139 38" id="accent" xmlns="http://www.w3.org/2000/svg"><g fill="#fff"><path d="M40.292 30.052l-.03.03v4.122l.03.03h1.266c1.284 0 2.21-.926 2.21-2.091s-.926-2.09-2.21-2.09h-1.266zm.43.46h.836c.973 0 1.678.717 1.678 1.631s-.705 1.63-1.678 1.63h-.836v-3.26zm4.5-.46l-.03.03v4.122l.03.03h.4l.03-.03v-4.122l-.03-.03h-.4zm5.639.825v-.526c-.388-.293-.926-.388-1.493-.388-1.284 0-2.27.985-2.27 2.18 0 1.224 1.016 2.18 2.3 2.18a2.56 2.56 0 001.523-.478V31.97l-.03-.03h-1.374l-.03.03v.406l.03.03h.944v1.165a2.18 2.18 0 01-1.063.268c-1.004 0-1.774-.734-1.774-1.696 0-.944.74-1.696 1.744-1.696.508 0 1.063.107 1.463.46l.03-.03zm1.651-.825l-.03.03v4.122l.03.03h.4l.03-.03v-4.122l-.03-.03h-.4zm1.75 0l-.03.03v.4l.03.03h1.41v3.692l.03.03h.406l.03-.03v-3.692h1.41l.03-.03v-.4l-.03-.03h-3.285zm5.161 0l-.03.03-1.66 4.122.03.03h.442l.03-.03.441-1.093h1.912l.448 1.093.03.03h.441l.03-.03-1.666-4.122-.03-.03h-.418zm.209.634l.776 1.965h-1.546l.77-1.965zm3.135-.634l-.024.024v4.134l.024.023h2.383l.024-.023v-.407l-.024-.03h-1.947v-3.697l-.024-.024h-.412zm3.49 2.545l-.03.03v.406l.03.03h1.852l.03-.03v-.406l-.03-.03h-1.852zm4.506-2.545l-.03.03-1.66 4.122.03.03h.442l.03-.03.441-1.093h1.912l.448 1.093.03.03h.442l.03-.03-1.667-4.122-.03-.03h-.418zm.21.634l.776 1.965h-1.547l.77-1.965zm3.14-.634l-.03.03v4.122l.03.03h.4l.03-.03v-3.692h1.942l.03-.03v-.4l-.03-.03h-2.371zm3.724 0l-.03.03v4.122l.03.03h2.55l.03-.03v-.4l-.03-.03h-2.12v-1.607h1.464l.03-.03v-.406l-.03-.03h-1.464v-1.189h1.941l.03-.03v-.4l-.03-.03h-2.37zm3.963 0l-.03.03v4.122l.03.03h.4l.03-.03v-2.037h2.407v2.037l.03.03h.4l.03-.03v-4.122l-.03-.03h-.4l-.03.03v1.619H82.23v-1.619l-.03-.03h-.4zm4.614 0l-.03.03v.4l.03.03h1.41v3.692l.029.03h.407l.03-.03v-3.692h1.409l.03-.03v-.4l-.03-.03h-3.285zm7.557.884v-.525a2.396 2.396 0 00-1.434-.448c-1.224 0-2.21.985-2.21 2.18 0 1.195.986 2.18 2.21 2.18.567 0 1.045-.167 1.434-.448v-.526l-.03-.03c-.4.33-.896.52-1.404.52a1.689 1.689 0 01-1.684-1.696c0-.944.759-1.696 1.684-1.696.508 0 1.004.19 1.404.52l.03-.03zm1.197-.884l-.03.03v.4l.03.03h1.41v3.692l.03.03h.406l.03-.03v-3.692h1.409l.03-.03v-.4l-.03-.03h-3.285zm4.635 0l-.03.03v4.122l.03.03h1.362c.806 0 1.404-.544 1.404-1.26 0-.526-.299-.956-.95-1.136.263-.149.442-.382.442-.734 0-.633-.472-1.052-1.308-1.052h-.95zm.43.46h.52c.543 0 .783.227.783.592 0 .412-.294.627-.783.627h-.52v-1.219zm0 1.685h.932c.538 0 .878.322.878.776 0 .478-.34.8-.878.8h-.932v-1.576zm5.733-2.234c-1.219 0-2.21.98-2.21 2.18 0 1.2.991 2.18 2.21 2.18 1.218 0 2.209-.98 2.209-2.18 0-1.2-.991-2.18-2.209-2.18zm0 .484c.925 0 1.677.758 1.677 1.696s-.752 1.696-1.677 1.696a1.693 1.693 0 01-1.685-1.696c0-.938.759-1.696 1.685-1.696z"/><path fill-rule="evenodd" clip-rule="evenodd" d="M15.319 3.313c1.656 0 3.252.262 4.746.749l-2.9 5.145h3.428l2.156-3.975c4.705 2.615 7.889 7.635 7.889 13.4 0 8.46-6.859 15.318-15.32 15.318C6.859 33.95 0 27.092 0 18.631c0-8.46 6.858-15.319 15.319-15.319zm-1.43 8.721l.088-.088h2.468l.088.088L21.205 24.2l-.088.088h-2.733l-.088-.088-.881-2.469h-4.408l-.881 2.469-.088.088H9.305l-.088-.088 4.672-12.165zm2.732 7.228l-1.41-4.142-1.41 4.142h2.82z"/><path d="M44.188 3.313c1.444 0 2.549.337 3.314 1.013.764.675 1.147 1.694 1.147 3.057v5.613h-2.166V11.83c-.282.419-.682.739-1.202.96-.52.22-1.148.332-1.882.332s-1.377-.123-1.927-.368c-.551-.245-.976-.586-1.276-1.022-.3-.437-.45-.93-.45-1.48 0-.86.327-1.55.982-2.07.655-.52 1.686-.78 3.093-.78h2.534v-.144c0-.67-.205-1.184-.616-1.543-.41-.358-1.018-.538-1.826-.538a5.39 5.39 0 00-1.625.252 4.02 4.02 0 00-1.349.699l-.9-1.632c.515-.382 1.133-.675 1.855-.878a8.427 8.427 0 012.294-.305zm-.312 8.177c.575 0 1.086-.129 1.533-.386a2.11 2.11 0 00.946-1.103V8.89h-2.368c-1.322 0-1.983.425-1.983 1.274 0 .406.165.729.495.968.33.24.79.359 1.377.359zM55.57 9.158h-1.78v3.838h-2.295V3.42h2.295v3.874h1.835l2.9-3.874h2.46l-3.56 4.609 3.8 4.967h-2.7L55.57 9.158zm17.69 1.937l.676 1.888-2.487.013h-8.61V3.42h2.295v7.675h4.681V3.42h2.295v7.675h1.15zM84.81 8.262c0 .155-.011.377-.036.663h-7.692a2.597 2.597 0 001.056 1.677c.569.412 1.276.619 2.12.619 1.077 0 1.964-.347 2.662-1.04l1.23 1.38a4.14 4.14 0 01-1.67 1.166c-.674.263-1.432.394-2.277.394-1.077 0-2.026-.209-2.845-.627-.82-.418-1.454-1.001-1.9-1.748-.447-.748-.67-1.594-.67-2.538 0-.933.217-1.772.652-2.52a4.566 4.566 0 011.807-1.748c.771-.418 1.64-.627 2.607-.627.955 0 1.808.206 2.561.618.752.413 1.34.992 1.763 1.74.421.747.632 1.61.632 2.59zm-4.956-3.156c-.734 0-1.356.212-1.863.636-.508.425-.817.99-.927 1.695h5.562c-.098-.693-.398-1.255-.9-1.686-.501-.43-1.126-.645-1.872-.645zm7.471-1.686h2.295v3.892h4.937V3.42h2.295v9.576h-2.295V9.212h-4.937v3.784h-2.295V3.42zm20.383 1.9h-3.44v7.676h-2.295V5.32h-3.45v-1.9h9.171l.014 1.9zM135.389 25.164h-3.151l2.898-7.56h3.15l-2.897 7.56zM40.453 17.457h2.034v2.746h3.072v-2.746h2.047v7.036h-2.047v-2.629h-3.072v2.63h-2.034v-7.037zm11.852-.105c1.093 0 1.933.26 2.52.778.586.52.879 1.302.879 2.348v4.015h-1.916v-.876c-.385.654-1.103.98-2.153.98-.542 0-1.012-.09-1.41-.274-.399-.183-.703-.436-.913-.759a1.97 1.97 0 01-.315-1.098c0-.654.248-1.169.742-1.543.494-.375 1.258-.563 2.29-.563h1.628c0-.444-.136-.787-.407-1.026-.272-.24-.678-.36-1.22-.36-.377 0-.747.059-1.11.177a2.935 2.935 0 00-.925.477l-.735-1.426c.385-.27.846-.48 1.384-.627a6.225 6.225 0 011.66-.223zm-.158 5.873c.35 0 .66-.081.932-.242.271-.162.464-.4.578-.713v-.72h-1.405c-.84 0-1.26.275-1.26.825 0 .261.103.468.309.62.205.153.487.23.846.23zm13.217-5.873c.656 0 1.253.15 1.791.451.538.301.96.724 1.267 1.269.306.545.46 1.18.46 1.903 0 .724-.154 1.358-.46 1.903a3.246 3.246 0 01-1.267 1.269c-.538.3-1.135.45-1.791.45-.901 0-1.61-.283-2.127-.85v3.284H61.19v-9.574h1.956v.81c.507-.61 1.246-.915 2.218-.915zm-.355 5.572c.525 0 .956-.177 1.293-.53.337-.353.505-.826.505-1.419 0-.593-.168-1.066-.505-1.419-.337-.353-.768-.53-1.293-.53-.525 0-.956.177-1.292.53-.337.353-.506.826-.506 1.42 0 .592.169 1.065.506 1.418.337.353.767.53 1.292.53zM77.176 21c0 .026-.013.21-.04.55h-5.341c.096.436.324.78.682 1.033.359.253.805.38 1.34.38.367 0 .693-.055.977-.165a2.37 2.37 0 00.794-.516l1.09 1.177c-.666.758-1.637 1.138-2.915 1.138-.796 0-1.5-.155-2.113-.464a3.41 3.41 0 01-1.417-1.289c-.333-.55-.499-1.172-.499-1.87 0-.689.164-1.31.492-1.864a3.442 3.442 0 011.352-1.294 3.977 3.977 0 011.923-.465c.691 0 1.317.148 1.877.445.56.296 1 .721 1.319 1.275.319.554.48 1.197.48 1.93zm-3.662-2.105c-.464 0-.852.13-1.168.392-.315.261-.508.619-.578 1.072h3.478c-.07-.444-.262-.8-.577-1.066-.314-.265-.7-.398-1.155-.398zm9.726 1.935c.42.13.746.332.977.602.232.27.348.593.348.968 0 .444-.153.834-.46 1.17-.306.336-.726.595-1.26.778-.533.183-1.136.275-1.81.275a7.803 7.803 0 01-1.627-.17 6.192 6.192 0 01-1.484-.51l.551-1.426c.744.358 1.567.537 2.467.537.482 0 .86-.072 1.136-.216.276-.144.413-.347.413-.608a.57.57 0 00-.288-.517c-.193-.118-.473-.176-.84-.176h-1.444v-1.27h1.26c.359 0 .634-.056.827-.17a.544.544 0 00.289-.496c0-.227-.12-.401-.362-.523-.24-.123-.584-.183-1.03-.183-.682 0-1.426.16-2.231.483l-.498-1.412c.98-.427 1.933-.64 2.86-.64.64 0 1.21.077 1.713.234.503.157.899.386 1.188.687.289.3.434.652.434 1.053 0 .331-.102.63-.302.896a2.083 2.083 0 01-.827.634zm9.883-3.374l-3.19 7.468c-.324.81-.724 1.382-1.2 1.713-.478.332-1.053.497-1.727.497-.368 0-.731-.057-1.09-.17a2.405 2.405 0 01-.878-.47l.748-1.452c.158.14.34.248.544.327.206.078.409.117.61.117.28 0 .508-.067.683-.202.176-.136.333-.36.473-.674l.025-.065-3.057-7.09h2.113l1.982 4.774 1.994-4.773h1.97zm7.258 0v7.036h-2.049v-5.362h-2.23l-.066 1.242c-.036.924-.123 1.692-.263 2.302-.14.61-.367 1.09-.682 1.439-.314.349-.752.523-1.312.523-.298 0-.652-.052-1.063-.157l.105-1.674c.14.017.24.026.302.026.305 0 .535-.111.688-.333.153-.223.256-.506.309-.85.053-.345.091-.8.118-1.367l.105-2.825h6.038zm5.787 2.25c.918.008 1.624.215 2.113.62.49.406.735.98.735 1.72 0 .776-.273 1.38-.819 1.812-.549.431-1.315.647-2.305.647l-3.543-.013v-7.036h2.034v2.25h1.785zm-.459 3.348c.393.008.695-.075.905-.249.21-.174.316-.436.316-.785 0-.34-.104-.588-.308-.745-.207-.157-.511-.24-.913-.249l-1.326-.013v2.04h1.326zm9.87-3.924h-2.389v5.362h-2.034v-5.362h-2.389v-1.674h6.812v1.674zm3.832-1.779c1.094 0 1.933.26 2.52.778.586.52.879 1.302.879 2.348v4.015h-1.916v-.876c-.385.654-1.102.98-2.152.98-.543 0-1.013-.09-1.411-.274-.399-.183-.703-.436-.913-.759a1.976 1.976 0 01-.315-1.098c0-.654.248-1.169.742-1.543.495-.375 1.257-.563 2.29-.563h1.628c0-.444-.136-.787-.407-1.026-.271-.24-.678-.36-1.221-.36-.376 0-.745.059-1.109.177a2.953 2.953 0 00-.926.477l-.734-1.426c.384-.27.846-.48 1.384-.627a6.233 6.233 0 011.661-.223zm-.158 5.873c.351 0 .661-.081.932-.242.271-.162.464-.4.578-.713v-.72h-1.404c-.841 0-1.261.275-1.261.825 0 .261.103.468.308.62.206.153.489.23.847.23zm10.964-4.094h-2.078v5.362h-2.035v-5.362h-2.388v-1.674h7.121l-.62 1.674z"/></g></symbol><symbol fill="none" viewBox="0 0 10 10" id="arrow-right" xmlns="http://www.w3.org/2000/svg"><path d="M2.576 0l.393 1.062a6 6 0 003.545 3.545L7.576 5l-1.062.393A6 6 0 002.97 8.938L2.576 10c-.596-1.612.707-4.231 2.244-5-1.537-.769-2.84-3.388-2.244-5z" fill="#191919"/></symbol><symbol fill="none" viewBox="0 0 16 17" id="arrow-up" xmlns="http://www.w3.org/2000/svg"><path d="M0 12.379l1.7-.629A9.6 9.6 0 007.37 6.078L8 4.38l.629 1.7A9.6 9.6 0 0014.3 11.75L16 12.38c-2.579.954-6.77-1.13-8-3.59-1.23 2.46-5.421 4.544-8 3.59z" fill="#fff"/></symbol><symbol fill="none" viewBox="0 0 12 13" id="arrow-up-black" xmlns="http://www.w3.org/2000/svg"><path d="M12 3.59l-1.274.472a7.2 7.2 0 00-4.254 4.254L6 9.591l-.472-1.275a7.2 7.2 0 00-4.253-4.254L0 3.591c1.934-.716 5.078.848 6 2.692.922-1.844 4.066-3.408 6-2.692z" fill="#191919"/></symbol><symbol fill="none" viewBox="0 0 7 14" id="back" xmlns="http://www.w3.org/2000/svg"><path d="M6.8 14l-.535-1.487c-.827-2.3-2.587-4.112-4.82-4.963L0 7l1.444-.55c2.234-.851 3.994-2.664 4.82-4.963L6.8 0c.811 2.256-.96 5.924-3.051 7 2.09 1.076 3.862 4.744 3.051 7z" fill="#fff"/></symbol><symbol fill="none" viewBox="0 0 7 14" id="back-grey" xmlns="http://www.w3.org/2000/svg"><path d="M6.8 14l-.535-1.487c-.827-2.3-2.587-4.112-4.82-4.963L0 7l1.444-.55c2.234-.851 3.994-2.664 4.82-4.963L6.8 0c.811 2.256-.96 5.924-3.051 7 2.09 1.076 3.862 4.744 3.051 7z" fill="#191919" fill-opacity=".5"/></symbol><symbol fill="none" viewBox="0 0 47 19" id="back-primary" xmlns="http://www.w3.org/2000/svg"><path d="M7.782 1.611l-.58 1.57a8.866 8.866 0 01-5.24 5.238l-1.568.58 1.569.581A8.866 8.866 0 017.2 14.82l.58 1.569C8.664 14.006 6.739 10.135 4.467 9 6.738 7.864 8.663 3.993 7.782 1.61z" fill="#41352B"/><path d="M3.5 9H46v7.5" stroke="#41352B" stroke-width="1.6"/></symbol><symbol fill="none" viewBox="0 0 14 14" id="bonus" xmlns="http://www.w3.org/2000/svg"><circle cx="7" cy="7" r="7" fill="#41352B"/><path fill-rule="evenodd" clip-rule="evenodd" d="M4.972 3.656c-.023.024-.042.707-.042 1.516v1.473H4.66c-.318 0-.339.038-.34.612v.357h.609l.015 1.24.015 1.239h1.168l.028-1.254.028-1.254h.482l.602 1.197c.33.658.629 1.227.662 1.264.067.075 1.116.09 1.23.018.047-.03-.12-.417-.548-1.284-.338-.683-.602-1.264-.586-1.29.015-.026.074-.047.13-.047.192 0 .988-.453 1.129-.642.365-.49.466-.908.371-1.532-.11-.731-.525-1.212-1.275-1.478-.33-.117-.488-.13-1.863-.153-.826-.015-1.521-.006-1.544.018zm2.89 1.18c.329.092.487.25.577.578.205.75-.38 1.16-1.7 1.19l-.557.012-.015-.962-.016-.962.711.03c.391.017.841.068 1 .113z" fill="#fff"/></symbol><symbol fill="none" viewBox="0 0 12 12" id="checkmark" xmlns="http://www.w3.org/2000/svg"><path d="M2.205 5.66l2.591 2.59 4.75-4.75" stroke="#41352B"/></symbol><symbol fill="none" viewBox="0 0 13 21" id="down" xmlns="http://www.w3.org/2000/svg"><path d="M12.64 14.446l-1.321.49a7.466 7.466 0 00-4.411 4.41l-.49 1.322-.488-1.322a7.466 7.466 0 00-4.411-4.41l-1.322-.49c2.006-.742 5.266.88 6.222 2.792.956-1.912 4.216-3.534 6.222-2.792z" fill="#fff"/><path d="M6.414 18.052V.263" stroke="#fff" stroke-width="1.347"/></symbol><symbol fill="none" viewBox="0 0 18 18" id="filters" xmlns="http://www.w3.org/2000/svg"><g stroke="#191919" stroke-linecap="round" stroke-linejoin="round"><path fill-rule="evenodd" clip-rule="evenodd" d="M10.5 10.5H12a.75.75 0 01.75.75v3A.75.75 0 0112 15h-1.5a.75.75 0 01-.75-.75v-3a.75.75 0 01.75-.75z"/><path d="M15.75 12.75h-3M9.75 12.75h-7.5"/><path fill-rule="evenodd" clip-rule="evenodd" d="M7.5 7.5H6a.75.75 0 01-.75-.75v-3A.75.75 0 016 3h1.5a.75.75 0 01.75.75v3a.75.75 0 01-.75.75z"/><path d="M2.25 5.25h3M8.25 5.25h7.5"/></g></symbol><symbol fill="none" viewBox="0 0 71 16" id="halva" xmlns="http://www.w3.org/2000/svg"><path d="M23.669 12.287h-1.293a.274.274 0 01-.274-.275v-2.04c-.378.12-.773.18-1.17.178a3.662 3.662 0 01-1.26-.21 2.932 2.932 0 01-1.01-.618 2.806 2.806 0 01-.668-1.005 3.553 3.553 0 01-.246-1.363V5.781a.276.276 0 01.274-.275h1.28a.273.273 0 01.273.275v1.054c0 .546.137.954.41 1.219a1.524 1.524 0 001.105.397c.165-.001.33-.018.49-.049.168-.032.352-.07.534-.115V5.772a.275.275 0 01.273-.274h1.293a.273.273 0 01.274.274v6.229a.274.274 0 01-.285.286zM37.066 5.36a3.215 3.215 0 012.796 1.449.276.276 0 01-.059.374l-.868.67a.272.272 0 01-.38-.043 2.64 2.64 0 00-.52-.503 1.599 1.599 0 00-.955-.275 1.715 1.715 0 00-1.63 1.116 2.002 2.002 0 00-.13.733c-.003.252.041.502.13.739.08.218.203.418.36.588.157.166.345.298.553.39.226.099.47.148.717.145.339.012.673-.083.955-.274.187-.138.355-.3.5-.482a.273.273 0 01.38-.047l.867.67a.275.275 0 01.063.369 3.246 3.246 0 01-1.034 1.006 3.266 3.266 0 01-1.753.459 3.692 3.692 0 01-1.427-.275 3.57 3.57 0 01-1.152-.753 3.594 3.594 0 01-.772-3.928c.181-.42.444-.8.772-1.117a3.701 3.701 0 012.579-1.02l.008.008zM46.39 7.056h-1.868v4.957a.276.276 0 01-.273.274h-1.282a.273.273 0 01-.273-.274V7.056H40.84a.27.27 0 01-.254-.169.27.27 0 01-.02-.105V5.776a.275.275 0 01.274-.275h5.55a.274.274 0 01.273.275v1.006a.27.27 0 01-.169.254.27.27 0 01-.104.02zM53.268 12.288h-1.28a.274.274 0 01-.275-.275v-1.45H50.39l-1.46 1.725h-1.474a.273.273 0 01-.248-.156.277.277 0 01.034-.291l1.388-1.73a2.283 2.283 0 01-.798-.838 2.486 2.486 0 01-.294-1.227c-.006-.37.069-.737.219-1.074.138-.305.34-.576.593-.795.263-.22.566-.388.893-.493a3.599 3.599 0 011.132-.167h2.893a.273.273 0 01.272.275v6.228a.276.276 0 01-.272.268zm-2.76-5.216a1.268 1.268 0 00-.792.238.838.838 0 00-.314.706.89.89 0 00.314.725c.223.182.504.276.791.267h1.188V7.072h-1.188zM61.941 5.602l-2.963 3.303-2.947-3.303a.275.275 0 00-.206-.092h-.35a.274.274 0 00-.274.274v6.229a.276.276 0 00.274.275h1.292a.274.274 0 00.274-.275v-2.97l1.543 1.741a.27.27 0 00.204.092h.367a.272.272 0 00.206-.092l1.555-1.755v2.984a.278.278 0 00.274.275h1.28a.275.275 0 00.274-.275V5.784a.278.278 0 00-.273-.274h-.326a.267.267 0 00-.204.092zM69.912 5.587l-3.666 3.538v-3.34a.276.276 0 00-.273-.275h-1.295a.273.273 0 00-.274.274v6.229a.274.274 0 00.274.275h.4a.276.276 0 00.19-.078l3.652-3.52v3.328a.275.275 0 00.274.275h1.28a.273.273 0 00.273-.275V5.784a.276.276 0 00-.273-.274H70.1a.274.274 0 00-.189.077z" fill="#191919"/><path fill-rule="evenodd" clip-rule="evenodd" d="M28.896 5.334a3.524 3.524 0 00-2.987 1.634 3.556 3.556 0 00.884 4.77 3.528 3.528 0 004.8-.578 2.64 2.64 0 01-.96 1.032v.183h1.514a.271.271 0 00.274-.275V8.862a3.551 3.551 0 00-1.038-2.494 3.526 3.526 0 00-2.487-1.034zm0 5.264a1.708 1.708 0 01-1.584-1.057 1.724 1.724 0 01.367-1.873 1.71 1.71 0 012.925 1.207 1.725 1.725 0 01-1.053 1.591c-.208.087-.43.132-.655.132z" fill="#191919"/><path d="M11.269 5.028L6.61 7.404V2.627c0-.53-.415-.96-.919-.96H.919c-.504 0-.919.43-.919.96v7.455c0 .708.705 1.176 1.322.86l4.659-2.376v4.777c0 .53.415.96.919.96h4.772c.503 0 .919-.43.919-.96V5.887c0-.707-.705-1.162-1.322-.859z" fill="url(#alpaint0_linear_320_10748)"/><defs><linearGradient id="alpaint0_linear_320_10748" x1="-.759" y1="3.561" x2="13.378" y2="12.363" gradientUnits="userSpaceOnUse"><stop stop-color="#5F49FD"/><stop offset=".15" stop-color="#A91DFD"/><stop offset=".157" stop-color="#AB24FD"/><stop offset=".223" stop-color="#BB6AFD"/><stop offset=".283" stop-color="#C8A1FD"/><stop offset=".334" stop-color="#D1C9FD"/><stop offset=".375" stop-color="#D7E1FD"/><stop offset=".4" stop-color="#D9EAFD"/><stop offset=".421" stop-color="#DDE9F6"/><stop offset=".452" stop-color="#E7E7E1"/><stop offset=".489" stop-color="#F7E4C0"/><stop offset=".5" stop-color="#FDE3B4"/><stop offset=".533" stop-color="#FDDFB1"/><stop offset=".568" stop-color="#FCD2A9"/><stop offset=".603" stop-color="#FBBE9B"/><stop offset=".638" stop-color="#F9A188"/><stop offset=".65" stop-color="#F89580"/><stop offset="1" stop-color="#F24C4E"/></linearGradient></defs></symbol><symbol fill="none" viewBox="0 0 107 110" id="instruction-1" xmlns="http://www.w3.org/2000/svg"><g stroke="#191919" stroke-width="1.5" stroke-miterlimit="10"><path d="M65.807.131s2.181 15.448 15.011 15.666c12.83.218 20.51 1.353 24.917 15.448.437 14.357 0 77.021 0 77.021M40.19.131s-.568 15.317-14.401 15.753c-13.833.437-21.034 2.793-24.437 15.012-.568 13.091 0 77.37 0 77.37M46.297 21.383A29.194 29.194 0 0026.31 15.84M60.701 21.382a22.212 22.212 0 0116.932-5.89"/><path d="M24.309 15.928v19.724s21.077 8.379 24.917 24.307M16.322 52.322s3.535-12.262 8.16-16.67M81.78 16.32v19.332s9.25 10.91 8.727 17.455M58.213 59.959s9.426-19.637 23.695-24.307M14.404 66.33s8.03 22.735 39.71 5.978c28.67 16.975 38.097-5.979 38.097-5.979M20.204 80.905l-.567-7.288M86.356 80.905l.349-7.288M22.123 92.73c.485 4.965.279 9.973-.611 14.881M84.043 92.73s-1.047 10.604 1.833 14.881"/><path d="M97.702 47.783s15.884 16.495-42.94 16.626C-4.06 64.54 8.726 47.783 8.726 47.783"/><path d="M38.056 59.347l-.35 8.684-13.09-5.367 13.44-3.317z" fill="#191919"/><path d="M98.487 74.315s15.885 16.496-42.94 16.627C-3.275 91.072 9.51 74.315 9.51 74.315"/><path d="M38.839 85.749l-.393 8.902-13.048-5.499 13.44-3.403z" fill="#191919"/></g></symbol><symbol fill="none" viewBox="0 0 103 110" id="instruction-2" xmlns="http://www.w3.org/2000/svg"><g stroke="#191919" stroke-width="1.5" stroke-miterlimit="10"><path d="M92.389.22s-6.459 31.547-5.58 44.905M10.092.22s1.23 7.206 2.592 15.861a185.72 185.72 0 013.208 29.044"/><path d="M89.57 15.861c-10.017 1.23-39.544-6.59-39.544-6.59s-30.141 7.293-37.128 6.81M92.383 58.745s12.698 31.24 8.304 49.035M10.086 58.745s-11.468 31.592-8.04 49.035"/><path d="M98.273 77.024c-12.918 7.03-47.102 7.733-47.102 7.733S12.022 82.955 4.73 77.024M100.164 85.591c-8.085 4.79-48.684 7.382-48.684 7.382S13.738 91.567 3.148 85.59M95.948 39.237S111.94 55.8 52.713 55.977c-59.23.176-46.355-16.74-46.355-16.74"/><path d="M35.922 50.836l-.396 8.744-13.137-5.404 13.533-3.34z" fill="#191919"/></g></symbol><symbol fill="none" viewBox="0 0 107 110" id="instruction-3" xmlns="http://www.w3.org/2000/svg"><g clip-path="url(#aoclip0_152_15916)" stroke="#191919" stroke-width="1.5" stroke-miterlimit="10"><path d="M104.025 74.219s18.163 17.379-49.187 17.517c-67.35.138-52.69-17.517-52.69-17.517"/><path d="M36.165 86.389l-.415 9.173-13.783-5.67 14.198-3.503z" fill="#191919"/><path d="M84.021.138a169.73 169.73 0 00-1.705 25.355c.922 4.61 16.503 42.41 14.29 51.584M21.737.138s.46 3.412.968 7.745c.9 5.824 1.24 11.72 1.014 17.61-.922 3.734-16.273 44.116-14.567 51.584M83.187 7.56s-42.457-4.149-60.482.369M90.93 50.478s-31.439 13.83-75.463-.6M52.9 34.666l-.322 2.628M11.963 61.173s30.056 5.163 35.45 23.695M94.207 61.173S63.23 66.751 58.62 84.868M10.678 93.258a140.826 140.826 0 002.95 14.936M95.085 93.258a69.48 69.48 0 01-1.89 14.936M48.059 97.729v11.663M57.928 97.729v11.663"/></g><defs><clipPath id="aoclip0_152_15916"><path fill="#fff" d="M0 0h107v110H0z"/></clipPath></defs></symbol><symbol fill="none" viewBox="0 0 32 32" id="intro-arrow" xmlns="http://www.w3.org/2000/svg"><path d="M8.242 0L9.5 3.399a19.2 19.2 0 0011.343 11.343L24.242 16l-3.399 1.258A19.2 19.2 0 009.5 28.6L8.242 32c-1.908-5.157 2.261-13.54 7.18-16-4.918-2.46-9.088-10.843-7.18-16z" fill="#fff"/></symbol><symbol fill="none" viewBox="0 0 47 19" id="link-arrow" xmlns="http://www.w3.org/2000/svg"><path d="M39.218 1.612l.58 1.57a8.866 8.866 0 005.24 5.237L46.606 9l-1.57.58A8.866 8.866 0 0039.8 14.82l-.58 1.57c-.882-2.382 1.043-6.253 3.315-7.389-2.272-1.136-4.197-5.007-3.316-7.388z" fill="#fff"/><path d="M43.5 9H1v7.5" stroke="#fff" stroke-width="1.6"/></symbol><symbol fill="none" viewBox="0 0 34 14" id="link-arrow-black" xmlns="http://www.w3.org/2000/svg"><path d="M28.37 1.188l.42 1.156a6.475 6.475 0 003.79 3.86l1.136.428-1.136.427a6.475 6.475 0 00-3.79 3.86l-.42 1.157c-.637-1.755.756-4.608 2.4-5.444-1.644-.837-3.037-3.69-2.4-5.444z" fill="#191919"/><path d="M31.468 6.632H.723v5.526" stroke="#191919" stroke-width="1.158"/></symbol><symbol fill="none" viewBox="0 0 47 19" id="link-arrow-clean" xmlns="http://www.w3.org/2000/svg"><path d="M39.218 1.612l.58 1.57a8.866 8.866 0 005.24 5.237L46.606 9l-1.57.58A8.866 8.866 0 0039.8 14.82l-.58 1.57c-.882-2.382 1.043-6.253 3.315-7.389-2.272-1.136-4.197-5.007-3.316-7.388z" fill="#FFF"/><path d="M43.5 9H1" stroke="#FFF" stroke-width="1.6"/></symbol><symbol fill="none" viewBox="0 0 47 19" id="link-arrow-clean-prime" xmlns="http://www.w3.org/2000/svg"><path d="M39.218 1.612l.58 1.57a8.866 8.866 0 005.24 5.237L46.606 9l-1.57.58A8.866 8.866 0 0039.8 14.82l-.58 1.57c-.882-2.382 1.043-6.253 3.315-7.389-2.272-1.136-4.197-5.007-3.316-7.388z" fill="#41352B"/><path d="M43.5 9H1" stroke="#41352B" stroke-width="1.6"/></symbol><symbol fill="none" viewBox="0 0 47 19" id="link-arrow-prime" xmlns="http://www.w3.org/2000/svg"><path d="M39.218 1.612l.58 1.57a8.866 8.866 0 005.24 5.237L46.606 9l-1.57.58A8.866 8.866 0 0039.8 14.82l-.58 1.57c-.882-2.382 1.043-6.253 3.315-7.389-2.272-1.136-4.197-5.007-3.316-7.388z" fill="#41352B"/><path d="M43.5 9H1v7.5" stroke="#41352B" stroke-width="1.6"/></symbol><symbol fill="none" viewBox="0 0 116 116" id="loader" xmlns="http://www.w3.org/2000/svg"><g stroke="#fff" stroke-width="1.5"><path d="M58 17.79a40.39 40.39 0 0140.39 40.39M58 98.57a40.39 40.39 0 01-40.39-40.39"/></g></symbol><symbol fill="none" viewBox="0 0 24 24" id="loc" xmlns="http://www.w3.org/2000/svg"><path fill-rule="evenodd" clip-rule="evenodd" d="M14.574 20.111l5.315-14.34c.39-1.052-.634-2.076-1.686-1.686L3.856 9.404c-1.21.449-1.114 2.189.136 2.503l6.464 1.624 1.614 6.443c.314 1.251 2.055 1.346 2.504.137v0z" stroke="#8C8C8C" stroke-width="1.3" stroke-linecap="round" stroke-linejoin="round"/></symbol><symbol fill="none" viewBox="0 0 120 21" id="logo" xmlns="http://www.w3.org/2000/svg"><g clip-path="url(#clip0_701_8336)"><path fill-rule="evenodd" clip-rule="evenodd" d="M71.924.52a9.826 9.826 0 00-7.177 7.883c-.233 1.374-.12 3.695.248 5.07.345 1.29 1.466 3.11 2.597 4.215 1.74 1.7 3.148 2.404 5.46 2.728 5.005.702 9.586-2.578 10.86-7.776.337-1.376.247-3.983-.182-5.268-.794-2.38-2.48-4.58-4.368-5.702C77.1.327 74.286-.108 71.924.52zM1.98.648c-.07.073-.127 2.14-.127 4.595v4.462h-.823c-.961 0-1.025.115-1.029 1.856L0 12.64h1.848l.045 3.756.046 3.756h3.54l.084-3.8.085-3.799h1.46l1.824 3.627c1.003 1.995 1.906 3.72 2.006 3.833.202.227 3.384.271 3.73.052.14-.088-.363-1.265-1.663-3.891-1.025-2.07-1.825-3.83-1.777-3.909.048-.079.225-.144.395-.144.583 0 2.995-1.37 3.421-1.943 1.106-1.487 1.412-2.75 1.125-4.643-.336-2.216-1.593-3.672-3.864-4.478C11.303.702 10.826.662 6.66.591 4.156.548 2.05.573 1.981.647zm18.453.119c-.043.119-.098 1.887-.121 3.929l-.044 3.713-1.264.087-1.264.086v3.282l1.264.02 1.264.022.085 4.124.084 4.123h11.8l.049-1.683.048-1.684-.638-.029c-.35-.016-2.193-.037-4.094-.047l-3.456-.02V11.928l3.203-.032 3.203-.032.048-1.68.049-1.68-3.252-.048-3.251-.047V4.091l4.027-.04c2.216-.02 4.049-.06 4.074-.086.025-.026.072-.765.103-1.643.043-1.211.002-1.617-.168-1.684C32.06.59 29.383.55 26.235.55c-4.425 0-5.741.049-5.801.216zM34.72.939c-.075.213-.103.988-.062 1.72l.073 1.333 1.71.05 1.71.049.043 7.968.044 7.968.378.103c.494.136 2.718.139 3.061.004.238-.093.267-.962.267-8.028V4.183l.38-.089c.208-.05 1.021-.109 1.806-.133l1.428-.043-.053-1.554c-.029-.855-.088-1.612-.13-1.684-.044-.071-2.429-.13-5.3-.13h-5.22l-.135.389zM48.43.766c-.043.119-.098 2.159-.121 4.534l-.043 4.317-.885.052-.886.053v2.9l.886.052.885.052.084 3.713.084 3.713h3.54l.046-3.842.045-3.843h1.44l1.66 3.325c.911 1.828 1.809 3.58 1.992 3.894l.335.57 1.842-.036c1.013-.02 1.87-.083 1.904-.14.069-.114.09-.07-2.085-4.479-.86-1.743-1.5-3.229-1.421-3.301.079-.073.514-.259.967-.412 1.885-.64 3.425-2.097 3.827-3.62.313-1.19.117-3.338-.4-4.371-.85-1.7-2.607-2.838-4.925-3.187-1.644-.248-8.678-.203-8.771.056zM84.778.65c-.055.056.129.658.408 1.339.734 1.79 3.949 9.557 5.373 12.981.672 1.615 1.39 3.346 1.594 3.847.206.5.417.955.47 1.01.138.14.552-.748 2.224-4.77.81-1.948 1.608-3.852 1.775-4.232.167-.38.961-2.284 1.766-4.231a274.668 274.668 0 011.954-4.638c.27-.603.45-1.167.398-1.252C100.629.52 97.287.5 97.037.682c-.096.07-.374.671-.617 1.336-1.976 5.396-2.581 7.072-2.948 8.16-.232.69-.478 1.253-.547 1.253-.068 0-1.056-2.39-2.194-5.311C89.594 3.199 88.575.752 88.47.682c-.228-.15-3.548-.178-3.691-.03zm19.134.04c-.182.084-.271.449-.31 1.273-.092 1.954-.209 1.867 2.534 1.867 1.825 0 2.348.05 2.285.216-.182.478-4.694 11.92-5.425 13.757-.431 1.083-.75 2.058-.71 2.167.105.28 3.425.327 3.603.05.073-.113.439-1.023.814-2.023l.681-1.818 3.551-.046 3.551-.047.725 1.947c.398 1.07.747 1.974.775 2.01.11.137 3.536.179 3.744.045.177-.114.153-.294-.122-.903-.285-.632-5.661-13.504-6.697-16.036a35.724 35.724 0 00-.736-1.64l-.421-.874-3.793-.032c-2.086-.018-3.908.02-4.049.086zM10.741 4.22c.994.28 1.473.761 1.745 1.754.624 2.274-1.15 3.514-5.153 3.604l-1.685.038L5.6 6.701l-.046-2.916 2.153.094c1.185.051 2.55.205 3.033.341zm45.893-.125c1.73.372 2.337 1.046 2.337 2.593 0 1.928-1.36 2.715-5.1 2.952l-1.812.115V3.83h1.675c.92 0 2.226.12 2.9.265zm20.094.563c3.873 1.729 4.698 7.128 1.578 10.325-1.034 1.06-2.254 1.534-3.938 1.533-1.234 0-1.561-.067-2.36-.483-3.09-1.608-4.363-5.2-2.963-8.357 1.025-2.311 3.158-3.584 5.745-3.428.654.04 1.518.222 1.938.41zm35.311 4.397c.526 1.449.981 2.79 1.01 2.98.051.328-.054.347-2.115.393l-2.17.048.117-.476c.065-.263.482-1.45.928-2.64.445-1.189.862-2.336.925-2.55.064-.214.168-.389.232-.389.065 0 .547 1.185 1.073 2.634z" fill="#fff"/></g></symbol><symbol fill="none" viewBox="0 0 32 32" id="payment-1" xmlns="http://www.w3.org/2000/svg"><g stroke="#191919" stroke-width="1.5" stroke-linecap="round" stroke-linejoin="round"><path d="M28 10.667H4M16 24h8a4 4 0 004-4V9.333a4 4 0 00-4-4H8a4 4 0 00-4 4v8M8 21.333L10.667 24 8 26.667M4 24h6.667M12 16H9.333"/></g></symbol><symbol fill="none" viewBox="0 0 103 18" id="payment-2" xmlns="http://www.w3.org/2000/svg"><g fill="#191919"><path d="M19.082 3.234h-2.43v12.33h2.43V3.233zM13.858 3.924h-2.431v12.329h2.431V3.923zM8.634 4.694H6.203v12.331h2.431V4.694zM3.41 5.473H.979v12.333h2.43V5.473z"/><g><path d="M83.294 9.808L79.38 5.456H77.09v10.078h2.39v-6.43l3.574 3.81h.441l3.513-3.81v6.43h2.39V5.456h-2.29l-3.815 4.352zM100.782 5.456l-5.922 6.55v-6.55h-2.39v10.078h2.19l5.922-6.55v6.55h2.39V5.456h-2.19zM64.22 9.143c0 1.605.878 2.869 2.225 3.399l-2.526 2.992h2.925l2.297-2.722h2.486v2.722h2.39V5.456h-6.084c-2.268 0-3.713 1.551-3.713 3.687zm7.409-1.468v2.98h-3.252c-1.085 0-1.668-.604-1.668-1.491 0-.887.603-1.492 1.668-1.492l3.252.003zM53.117 7.471c-.147 3.466-.878 5.703-2.31 5.703h-.358v2.42l.382.02c2.87.16 4.457-2.359 4.717-7.86h3.776v7.78h2.385V5.456h-8.512l-.08 2.015zM44.122 5.315c-3.232 0-5.557 2.237-5.557 5.179 0 3.043 2.53 5.201 5.557 5.201 3.153 0 5.602-2.278 5.602-5.201 0-2.923-2.45-5.18-5.602-5.18zm0 7.96c-1.827 0-3.071-1.188-3.071-2.781 0-1.632 1.246-2.79 3.07-2.79 1.826 0 3.112 1.21 3.112 2.79s-1.304 2.782-3.111 2.782zM36.03 5.475h-8.433l-.08 2.015c-.12 2.904-.878 5.665-2.31 5.705l-.662.02v4.596l2.41-.005v-2.271h8.372v2.271h2.43v-4.611H36.03v-7.72zm-2.39 7.72h-5.098c.862-1.31 1.324-3.205 1.405-5.421h3.694v5.42z"/></g></g></symbol><symbol fill="none" viewBox="0 0 18 18" id="search" xmlns="http://www.w3.org/2000/svg"><g stroke="#8C8C8C" stroke-width="1.3" stroke-linecap="round" stroke-linejoin="round"><circle cx="8.058" cy="8.059" r="7.062"/><path d="M17.003 17.004l-3.951-3.952"/></g></symbol><symbol fill="none" viewBox="0 0 20 20" id="star" xmlns="http://www.w3.org/2000/svg"><path d="M10.418 16.667l.247-.669A9.028 9.028 0 0116 10.664l.669-.247-.669-.248a9.028 9.028 0 01-5.334-5.333l-.247-.67-.247.67a9.028 9.028 0 01-5.334 5.333l-.669.248.669.247a9.028 9.028 0 015.334 5.334l.247.669z" fill="#fff"/></symbol><symbol fill="none" viewBox="0 0 8 14" id="up" xmlns="http://www.w3.org/2000/svg"><path d="M7.998 4.55l-.793-.294A4.48 4.48 0 014.558 1.61L4.265.817l-.294.793a4.48 4.48 0 01-2.646 2.646l-.793.294c1.203.445 3.16-.528 3.733-1.675.574 1.147 2.53 2.12 3.733 1.675z" fill="#191919"/><path d="M4.266 2.367V11.3h-4" stroke="#191919"/></symbol><symbol fill="none" viewBox="0 0 16 16" id="warning" xmlns="http://www.w3.org/2000/svg"><path d="M8.895 5.83V13H7.111V5.83h1.784zM7 3.96c0-.277.09-.507.272-.688C7.452 3.09 7.695 3 8 3c.3 0 .541.09.722.272.185.18.278.41.278.689a.923.923 0 01-.278.69c-.18.18-.422.27-.722.27-.305 0-.547-.09-.728-.27A.934.934 0 017 3.96z" fill="#C5C5C5"/><rect x=".5" y=".5" width="15" height="15" rx="7.5" stroke="#C5C5C5"/></symbol><symbol fill="none" viewBox="0 0 24 24" id="wp" xmlns="http://www.w3.org/2000/svg"><path fill-rule="evenodd" clip-rule="evenodd" d="M5.29 18.741l.947-3.461a6.669 6.669 0 01-.892-3.34c.002-3.684 3-6.681 6.683-6.681 1.788 0 3.466.696 4.728 1.96a6.64 6.64 0 011.956 4.726 6.692 6.692 0 01-6.684 6.68h-.003a6.678 6.678 0 01-3.193-.813l-3.543.93zm4.693-9.883c.119.005.25.01.375.289.086.19.229.543.343.825.085.209.154.379.172.415.042.083.07.18.014.292l-.024.049a.935.935 0 01-.143.23 6.29 6.29 0 00-.087.104c-.057.069-.114.138-.163.188-.084.083-.171.174-.074.34.098.168.433.714.93 1.157.534.476.997.678 1.232.78.046.02.083.035.11.049.167.083.264.07.362-.042a9.74 9.74 0 00.529-.655c.111-.167.222-.14.375-.083.153.055.974.46 1.141.543l.092.045c.117.056.195.094.229.15.041.07.041.404-.098.794s-.82.766-1.127.793l-.089.01c-.283.033-.64.075-1.915-.427-1.57-.62-2.605-2.155-2.817-2.47l-.035-.051-.002-.003c-.09-.12-.68-.909-.68-1.724 0-.769.378-1.172.551-1.357l.033-.036a.613.613 0 01.446-.209l.32.004z" fill="#fff"/></symbol></svg>