<svg width="26" height="26" viewBox="0 0 26 26" fill="none" xmlns="http://www.w3.org/2000/svg">
<g id="Group">
<path id="Path" d="M9.49878 7.99806V7.49785C9.49878 5.56405 11.0664 3.99639 13.0002 3.99639V3.99639C14.934 3.99639 16.5017 5.56405 16.5017 7.49785V7.99806" stroke="#191919" stroke-width="1.3" stroke-linecap="round" stroke-linejoin="round"/>
<path id="Path_2" fill-rule="evenodd" clip-rule="evenodd" d="M7.46241 7.99805C6.40586 7.99805 5.53143 8.81958 5.46553 9.87407L5.00633 17.2212C4.92882 18.4615 5.36745 19.6787 6.21834 20.5844C7.06922 21.4901 8.25666 22.0039 9.49939 22.0039H16.502C17.7447 22.0039 18.9321 21.4902 19.783 20.5844C20.6339 19.6787 21.0726 18.4615 20.9951 17.2212L20.5359 9.87407C20.47 8.81958 19.5955 7.99805 18.539 7.99805H7.46241Z" stroke="#191919" stroke-width="1.3" stroke-linecap="round" stroke-linejoin="round"/>
</g>
</svg>
