<?xml version="1.0" encoding="utf-8"?>
<!-- Generator: Adobe Illustrator 24.3.0, SVG Export Plug-In . SVG Version: 6.00 Build 0)  -->
<svg version="1.1" id="Слой_1" xmlns="http://www.w3.org/2000/svg" xmlns:xlink="http://www.w3.org/1999/xlink" x="0px" y="0px"
	 viewBox="0 0 630.3 102.2" style="enable-background:new 0 0 630.3 102.2;" xml:space="preserve">
<style type="text/css">
	.st0{fill:#FFFFFF;}
</style>
		<path class="st0" d="M149.6,2.4v6.5h-45.5v29.7h44.1V45h-44.1v48.9h45.5v6.5H89.6V2.4H149.6z"/>
		<path class="st0" d="M231.5,2.4v6.5h-23.7v91.5h-14.4V8.9h-23.9V2.4H231.5z"/>
		<polygon class="st0" points="479.7,79.1 511.9,2.4 504.4,2.4 476.1,70 		"/>
		<polygon class="st0" points="477.4,98.5 477.2,98 438.6,2.4 423.5,2.4 462.6,100.4 478.2,100.4 477.4,98.5 		"/>
		<polygon class="st0" points="557.9,2.4 542.5,2.4 544.8,8 544.8,8 555.2,32.6 555.2,32.6 570.2,67.8 570.2,67.8 570.3,67.9 
			584.1,100.4 599.3,100.4 		"/>
		<path class="st0" d="M415.2,37.5c-1.2-4.3-3-8.4-5.3-12.2c-2.3-3.8-5-7.2-8.2-10.3C388.3,2,369.1-3,351,1.8
			c-4.4,1.2-8.6,2.9-12.5,5.2c-3.1,1.8-6,3.9-8.6,6.3l4.4,10.8c0.9-1.7,2-3.3,3.1-4.8c3.1-4,7-7.2,11.5-9.4c10.2-4.6,21.8-4.6,32,0
			c4.5,2.2,8.5,5.4,11.5,9.4c3.2,4.2,5.6,9,7,14.2c1.6,5.7,2.4,11.6,2.4,17.5c0,6-0.8,11.9-2.4,17.6c-1.5,5.2-3.9,10-7.1,14.3
			c-3.1,4-7,7.3-11.6,9.6c-4.9,2.4-10.4,3.6-15.8,3.5c-0.5,0-1-0.1-1.5-0.1l2.6,6.4c4.3-0.1,8.6-0.7,12.7-1.8
			c4.4-1.2,8.5-2.9,12.5-5.2c7.7-4.4,14.2-10.8,18.7-18.4c2.3-3.8,4-8,5.3-12.3c1.3-4.4,1.9-9,1.9-13.6
			C417.1,46.4,416.5,41.9,415.2,37.5z"/>
		<path class="st0" d="M34.2,62c4.7-0.7,9.2-2.3,13.2-4.8c3.2-2,6-4.6,8.2-7.6c1.9-2.6,3.3-5.6,4.2-8.7c0.7-2.6,1.1-5.4,1.2-8.1
			c0-2.1-0.2-4.1-0.5-6.2c-0.4-2.3-1-4.5-1.9-6.6c-1-2.4-2.4-4.6-4-6.5c-1.9-2.3-4.2-4.2-6.8-5.6c-3.2-1.8-6.7-3.1-10.4-4
			c-4.7-1.1-9.6-1.6-14.4-1.5H0v6.5h14.9c3.8,0,7.6,0.3,11.3,0.9c3.5,0.5,6.8,1.7,9.8,3.5c2.9,1.7,5.3,4.2,7,7.2
			c1.8,3.1,2.6,7.1,2.6,12c0.1,3.8-0.6,7.6-2.2,11.1c-1.4,3-3.5,5.5-6.2,7.4c-2.9,2-6.3,3.4-9.8,4.2c-4.2,0.9-8.5,1.3-12.8,1.3h-2.4
			l4.8,6.5l0,0l27.7,37.3h17.7L34.2,62z"/>
		<path class="st0" d="M286.8,62c4.7-0.7,9.2-2.3,13.2-4.8c3.2-2,6-4.6,8.2-7.6c1.9-2.6,3.3-5.6,4.1-8.7c0.7-2.6,1.1-5.4,1.2-8.1
			c0-2.1-0.2-4.1-0.5-6.2c-0.4-2.3-1-4.5-2-6.6c-1-2.4-2.4-4.6-4-6.5c-1.9-2.3-4.2-4.2-6.8-5.6c-3.2-1.8-6.7-3.1-10.4-4
			c-4.7-1.1-9.6-1.6-14.5-1.5h-22.9v6.5h14.9c3.8,0,7.6,0.3,11.3,0.9c3.5,0.5,6.8,1.7,9.9,3.5c2.9,1.7,5.3,4.2,7,7.2
			c1.8,3.1,2.6,7.1,2.6,12c0.1,3.8-0.6,7.6-2.2,11.1c-1.4,3-3.5,5.5-6.2,7.4c-2.9,2-6.3,3.4-9.8,4.2c-4.2,0.9-8.5,1.3-12.8,1.3h-2.4
			l4.8,6.5l0,0l27.7,37.3h17.7L286.8,62z"/>
		<polygon class="st0" points="519.9,81.2 565.8,81.2 568.5,87.7 517.2,87.7 		"/>
		<circle class="st0" cx="621.3" cy="93.3" r="9"/>
</svg>
