<svg width="34" height="34" viewBox="0 0 34 34" fill="none" xmlns="http://www.w3.org/2000/svg">
<path d="M5.19531 14.0547C5.19531 12.3359 5.54688 10.7865 6.25 9.40625C6.97917 8.02604 8.03385 6.93229 9.41406 6.125C10.7943 5.29167 12.4479 4.84896 14.375 4.79688V8.85938C12.7344 8.85938 11.5104 9.3151 10.7031 10.2266C9.92188 11.138 9.53125 12.4141 9.53125 14.0547V14.9922H13.9844V23.2734H5.19531V14.0547ZM26.8359 8.85938C25.1953 8.85938 23.9714 9.3151 23.1641 10.2266C22.3828 11.138 21.9922 12.4141 21.9922 14.0547V14.9922H26.4453V23.2734H17.6562V14.0547C17.6562 12.3359 18.0078 10.7865 18.7109 9.40625C19.4401 8.02604 20.4948 6.93229 21.875 6.125C23.2552 5.29167 24.9089 4.84896 26.8359 4.79688V8.85938Z" fill="#41352B"/>
</svg>
