<svg width="139" height="38" viewBox="0 0 139 38" fill="none" xmlns="http://www.w3.org/2000/svg">
<g id="logo 2">
<path id="Vector" d="M40.2916 30.0525L40.2617 30.0824V34.2036L40.2916 34.2334H41.5578C42.842 34.2334 43.7677 33.3077 43.7677 32.143C43.7677 30.9783 42.842 30.0525 41.5578 30.0525H40.2916ZM40.7216 30.5125H41.5578C42.5314 30.5125 43.2362 31.2291 43.2362 32.143C43.2362 33.0568 42.5314 33.7735 41.5578 33.7735H40.7216V30.5125ZM45.2226 30.0525L45.1928 30.0824V34.2036L45.2226 34.2334H45.6228L45.6527 34.2036V30.0824L45.6228 30.0525H45.2226ZM50.861 30.8768V30.3512C50.4728 30.0585 49.9353 29.9629 49.3678 29.9629C48.0837 29.9629 47.0982 30.9484 47.0982 32.143C47.0982 33.3674 48.1136 34.323 49.3977 34.323C49.9353 34.323 50.4728 34.1737 50.9207 33.8452V31.9698L50.8909 31.9399H49.5171L49.4873 31.9698V32.3759L49.5171 32.4058H50.4608V33.5705C50.1443 33.7556 49.7441 33.8393 49.3977 33.8393C48.3943 33.8393 47.6238 33.1046 47.6238 32.143C47.6238 31.1993 48.3644 30.4467 49.3678 30.4467C49.8755 30.4467 50.431 30.5542 50.8311 30.9066L50.861 30.8768ZM52.5124 30.0525L52.4825 30.0824V34.2036L52.5124 34.2334H52.9126L52.9424 34.2036V30.0824L52.9126 30.0525H52.5124ZM54.2625 30.0525L54.2327 30.0824V30.4826L54.2625 30.5125H55.6721V34.2036L55.702 34.2334H56.1082L56.138 34.2036V30.5125H57.5475L57.5774 30.4826V30.0824L57.5475 30.0525H54.2625ZM59.423 30.0525L59.3932 30.0824L57.7327 34.2036L57.7626 34.2334H58.2046L58.2344 34.2036L58.6764 33.1106H60.5877L61.0357 34.2036L61.0655 34.2334H61.5075L61.5374 34.2036L59.8709 30.0824L59.8411 30.0525H59.423ZM59.632 30.6856L60.4085 32.6507H58.8616L59.632 30.6856ZM62.7674 30.0525L62.7435 30.0764V34.2096L62.7674 34.2334H65.1505L65.1744 34.2096V33.8034L65.1505 33.7735H63.2035V30.0764L63.1795 30.0525H62.7674ZM66.2573 32.5969L66.2274 32.6268V33.0329L66.2573 33.0628H68.1089L68.1387 33.0329V32.6268L68.1089 32.5969H66.2573ZM70.7631 30.0525L70.7332 30.0824L69.0728 34.2036L69.1027 34.2334H69.5446L69.5745 34.2036L70.0165 33.1106H71.9278L72.3757 34.2036L72.4055 34.2334H72.8476L72.8774 34.2036L71.211 30.0824L71.1811 30.0525H70.7631ZM70.9721 30.6856L71.7486 32.6507H70.2016L70.9721 30.6856ZM74.1135 30.0525L74.0836 30.0824V34.2036L74.1135 34.2334H74.5136L74.5435 34.2036V30.5125H76.4846L76.5145 30.4826V30.0824L76.4846 30.0525H74.1135ZM77.8371 30.0525L77.8072 30.0824V34.2036L77.8371 34.2334H80.3874L80.4173 34.2036V33.8034L80.3874 33.7735H78.2671V32.1669H79.7305L79.7603 32.137V31.7308L79.7305 31.701H78.2671V30.5125H80.2083L80.2381 30.4826V30.0824L80.2083 30.0525H77.8371ZM81.7998 30.0525L81.77 30.0824V34.2036L81.7998 34.2334H82.2L82.2299 34.2036V32.1669H84.6369V34.2036L84.6667 34.2334H85.0667L85.0965 34.2036V30.0824L85.0667 30.0525H84.6667L84.6369 30.0824V31.701H82.2299V30.0824L82.2 30.0525H81.7998ZM86.4139 30.0525L86.3841 30.0824V30.4826L86.4139 30.5125H87.8232V34.2036L87.853 34.2334H88.2596L88.2894 34.2036V30.5125H89.6987L89.7286 30.4826V30.0824L89.6987 30.0525H86.4139ZM93.9706 30.9365V30.4109C93.5822 30.1302 93.1045 29.9629 92.5373 29.9629C91.3126 29.9629 90.3272 30.9484 90.3272 32.143C90.3272 33.3376 91.3126 34.323 92.5373 34.323C93.1045 34.323 93.5822 34.1558 93.9706 33.875V33.3495L93.9408 33.3196C93.5408 33.6481 93.0448 33.8393 92.5373 33.8393C91.6115 33.8393 90.853 33.0867 90.853 32.143C90.853 31.1993 91.6115 30.4467 92.5373 30.4467C93.0448 30.4467 93.5408 30.6378 93.9408 30.9664L93.9706 30.9365ZM95.1679 30.0525L95.1381 30.0824V30.4826L95.1679 30.5125H96.5773V34.2036L96.6071 34.2334H97.0136L97.0435 34.2036V30.5125H98.4528L98.4826 30.4826V30.0824L98.4528 30.0525H95.1679ZM99.8033 30.0525L99.7735 30.0824V34.2036L99.8033 34.2334H101.165C101.971 34.2334 102.569 33.6899 102.569 32.9732C102.569 32.4476 102.27 32.0176 101.619 31.8384C101.882 31.689 102.061 31.4561 102.061 31.1038C102.061 30.4706 101.589 30.0525 100.753 30.0525H99.8033ZM100.233 30.5125H100.753C101.296 30.5125 101.536 30.7394 101.536 31.1038C101.536 31.5159 101.242 31.7308 100.753 31.7308H100.233V30.5125ZM100.233 32.1968H101.165C101.703 32.1968 102.043 32.5193 102.043 32.9732C102.043 33.451 101.703 33.7735 101.165 33.7735H100.233V32.1968ZM105.966 29.9629C104.747 29.9629 103.756 30.9425 103.756 32.143C103.756 33.3435 104.747 34.323 105.966 34.323C107.184 34.323 108.175 33.3435 108.175 32.143C108.175 30.9425 107.184 29.9629 105.966 29.9629ZM105.966 30.4467C106.891 30.4467 107.643 31.2053 107.643 32.143C107.643 33.0807 106.891 33.8393 105.966 33.8393C105.04 33.8393 104.281 33.0807 104.281 32.143C104.281 31.2053 105.04 30.4467 105.966 30.4467Z" fill="white"/>
<path id="Vector_2" fill-rule="evenodd" clip-rule="evenodd" d="M15.3187 3.3125C16.9755 3.3125 18.5708 3.57549 20.0651 4.06202L17.1647 9.20673H20.5925L22.7491 5.232C27.4538 7.84656 30.6375 12.8671 30.6375 18.6312C30.6375 27.0916 23.7791 33.95 15.3187 33.95C6.85843 33.95 0 27.0916 0 18.6312C0 10.1709 6.85843 3.3125 15.3187 3.3125ZM13.8887 12.0345L13.9769 11.9464H16.4449L16.5331 12.0345L21.2048 24.1986L21.1167 24.2867H18.3841L18.2959 24.1986L17.4145 21.7305H13.0073L12.1258 24.1986L12.0376 24.2867H9.30518L9.21699 24.1986L13.8887 12.0345ZM16.6212 19.2624L15.2109 15.1196L13.8006 19.2624H16.6212Z" fill="white"/>
<path id="Vector_3" d="M44.1884 3.3125C45.6324 3.3125 46.7367 3.65036 47.5018 4.32574C48.2665 5.00111 48.6492 6.02046 48.6492 7.38312V12.9959H46.4829V11.8304C46.2014 12.2488 45.8006 12.5685 45.2805 12.7897C44.7605 13.0109 44.1332 13.1215 43.399 13.1215C42.6647 13.1215 42.0223 12.999 41.4716 12.754C40.9208 12.5088 40.4957 12.1681 40.1957 11.7318C39.896 11.2953 39.7461 10.8024 39.7461 10.2522C39.7461 9.39155 40.0733 8.70121 40.7281 8.18106C41.383 7.66111 42.414 7.40113 43.8211 7.40113H46.3545V7.25763C46.3545 6.5882 46.1495 6.07419 45.7394 5.71543C45.3295 5.35682 44.7206 5.17744 43.913 5.17744C43.3623 5.17744 42.8209 5.26126 42.2883 5.42858C41.7561 5.59589 41.3064 5.829 40.9393 6.12793L40.0397 4.49611C40.5538 4.11354 41.1718 3.82056 41.8938 3.61753C42.6159 3.41418 43.3805 3.3125 44.1884 3.3125ZM43.8763 11.4896C44.4513 11.4896 44.9624 11.361 45.4091 11.1041C45.8559 10.8471 46.1709 10.4794 46.3545 10.0013V8.88943H43.9865C42.6647 8.88943 42.0039 9.31396 42.0039 10.1627C42.0039 10.569 42.1691 10.892 42.4995 11.131C42.8299 11.3701 43.289 11.4896 43.8763 11.4896ZM55.5694 9.15846H53.7888V12.9959H51.4944V3.42031H53.7888V7.29351H55.6244L58.5249 3.42031H60.9847L57.4235 8.02873L61.2234 12.9959H58.5249L55.5694 9.15846ZM73.2585 11.0951L73.9352 12.9833L71.4481 12.9959H62.8385V3.42031H65.1332V11.0951H69.8141V3.42031H72.1086V11.0951H73.2585ZM84.8113 8.26182C84.8113 8.41728 84.7997 8.63853 84.7749 8.92536H77.0834C77.218 9.63085 77.57 10.1895 78.139 10.6021C78.7079 11.0145 79.4149 11.2208 80.2592 11.2208C81.3358 11.2208 82.223 10.8739 82.9209 10.1807L84.1506 11.5613C83.71 12.0756 83.1536 12.4639 82.4801 12.7271C81.8069 12.99 81.0485 13.1215 80.2042 13.1215C79.1268 13.1215 78.1784 12.9122 77.3587 12.4938C76.5384 12.0756 75.9054 11.4927 75.459 10.7455C75.0118 9.99842 74.7887 9.1525 74.7887 8.20795C74.7887 7.27548 75.0062 6.43568 75.4407 5.68856C75.8744 4.94143 76.4772 4.35855 77.2482 3.9401C78.0192 3.52181 78.8882 3.3125 79.8549 3.3125C80.8098 3.3125 81.6632 3.51876 82.416 3.93109C83.1685 4.34376 83.7556 4.9234 84.1787 5.6707C84.6002 6.41783 84.8113 7.2816 84.8113 8.26182ZM79.8549 5.10585C79.1205 5.10585 78.4995 5.31805 77.9918 5.74229C77.4841 6.16686 77.175 6.73172 77.0651 7.43701H82.6272C82.5286 6.74361 82.2293 6.18166 81.7273 5.7513C81.2259 5.32094 80.6013 5.10585 79.8549 5.10585ZM87.3261 3.42031H89.6206V7.31152H94.5582V3.42031H96.8535V12.9959H94.5582V9.21228H89.6206V12.9959H87.3261V3.42031ZM107.709 5.32094H104.269V12.9959H101.974V5.32094H98.5237V3.42031H107.695L107.709 5.32094Z" fill="white"/>
<path id="Vector_4" d="M135.389 25.1639H132.238L135.136 17.6035H138.286L135.389 25.1639Z" fill="white"/>
<path id="Vector_5" d="M40.4531 17.4568H42.4875V20.2033H45.5585V17.4568H47.606V24.4933H45.5585V21.8643H42.4875V24.4933H40.4531V17.4568ZM52.3046 17.3523C53.3984 17.3523 54.2384 17.6116 54.8247 18.1304C55.411 18.6492 55.704 19.4317 55.704 20.478V24.4933H53.7879V23.617C53.4028 24.2709 52.6853 24.5979 51.6353 24.5979C51.0929 24.5979 50.6227 24.5063 50.2245 24.3231C49.8264 24.1401 49.5223 23.8872 49.3122 23.5645C49.1024 23.242 48.9973 22.8759 48.9973 22.4661C48.9973 21.8121 49.2445 21.2975 49.7389 20.9226C50.2333 20.5477 50.9967 20.3603 52.0291 20.3603H53.6566C53.6566 19.9158 53.521 19.5733 53.2497 19.3338C52.9783 19.0938 52.5715 18.974 52.0291 18.974C51.6529 18.974 51.2832 19.0328 50.9201 19.1506C50.5569 19.2681 50.2487 19.4274 49.9948 19.6279L49.2598 18.2024C49.6448 17.932 50.1063 17.7227 50.6444 17.5746C51.1826 17.4264 51.7361 17.3523 52.3046 17.3523ZM52.147 23.2247C52.4974 23.2247 52.8077 23.1439 53.0792 22.9827C53.3503 22.8214 53.5428 22.5836 53.6566 22.2698V21.5505H52.2522C51.4122 21.5505 50.9924 21.8251 50.9924 22.3746C50.9924 22.6361 51.0951 22.843 51.3007 22.9958C51.5064 23.1484 51.7885 23.2247 52.147 23.2247ZM65.3637 17.3523C66.0199 17.3523 66.6171 17.5027 67.1552 17.8035C67.6933 18.1043 68.1154 18.527 68.4217 19.072C68.728 19.6169 68.8811 20.2515 68.8811 20.9751C68.8811 21.6986 68.728 22.3329 68.4217 22.8779C68.1154 23.4229 67.6933 23.8458 67.1552 24.1466C66.6171 24.4474 66.0199 24.5979 65.3637 24.5979C64.4625 24.5979 63.7538 24.3144 63.2375 23.7477V27.0306H61.1902V17.4568H63.1456V18.2677C63.6531 17.6575 64.3924 17.3523 65.3637 17.3523ZM65.0093 22.9238C65.5344 22.9238 65.9653 22.7473 66.3021 22.3941C66.639 22.0409 66.8075 21.568 66.8075 20.9751C66.8075 20.3821 66.639 19.9092 66.3021 19.556C65.9653 19.2028 65.5344 19.0263 65.0093 19.0263C64.4843 19.0263 64.0535 19.2028 63.7167 19.556C63.3798 19.9092 63.2113 20.3821 63.2113 20.9751C63.2113 21.568 63.3798 22.0409 63.7167 22.3941C64.0535 22.7473 64.4843 22.9238 65.0093 22.9238ZM77.1762 21.0012C77.1762 21.0273 77.1629 21.2105 77.1369 21.5505H71.7949C71.8911 21.9865 72.1189 22.3309 72.4773 22.5836C72.8358 22.8366 73.282 22.9631 73.8162 22.9631C74.1837 22.9631 74.5098 22.9086 74.7938 22.7995C75.0783 22.6905 75.3426 22.5184 75.5878 22.283L76.6772 23.46C76.0124 24.2185 75.0411 24.5979 73.7634 24.5979C72.9672 24.5979 72.2629 24.4431 71.6505 24.1336C71.0378 23.824 70.5655 23.3945 70.233 22.8452C69.9005 22.2959 69.7343 21.6726 69.7343 20.9751C69.7343 20.2862 69.8984 19.6651 70.2264 19.1113C70.5545 18.5577 71.0051 18.1261 71.5783 17.8166C72.1512 17.5069 72.7921 17.3523 73.5013 17.3523C74.1921 17.3523 74.8176 17.5005 75.3778 17.7968C75.9379 18.0934 76.3778 18.5184 76.6969 19.072C77.016 19.6258 77.1762 20.2688 77.1762 21.0012ZM73.5139 18.8956C73.0501 18.8956 72.6615 19.0263 72.3459 19.2879C72.031 19.5495 71.8385 19.9069 71.7682 20.3603H75.2464C75.1767 19.9158 74.9842 19.5604 74.6693 19.2944C74.3545 19.0285 73.9694 18.8956 73.5139 18.8956ZM83.2402 20.8312C83.6592 20.9619 83.9855 21.1626 84.2173 21.4328C84.4492 21.703 84.5651 22.0257 84.5651 22.4006C84.5651 22.8452 84.4119 23.2354 84.1056 23.5711C83.7992 23.9069 83.3794 24.1663 82.8453 24.3494C82.3123 24.5324 81.7085 24.624 81.0345 24.624C80.4835 24.624 79.941 24.5674 79.4076 24.454C78.8734 24.3407 78.3787 24.1706 77.924 23.944L78.475 22.5184C79.2192 22.8759 80.0415 23.0546 80.9424 23.0546C81.4239 23.0546 81.8027 22.9827 82.0782 22.8388C82.3537 22.6949 82.4915 22.4921 82.4915 22.2305C82.4915 22.0039 82.3952 21.8318 82.2026 21.714C82.01 21.5962 81.7303 21.5375 81.3628 21.5375H79.9192V20.2688H81.1793C81.5377 20.2688 81.8132 20.2121 82.0058 20.0987C82.1984 19.9855 82.2946 19.8197 82.2946 19.6018C82.2946 19.3749 82.1745 19.2006 81.9334 19.0786C81.6931 18.9565 81.3494 18.8956 80.9031 18.8956C80.2207 18.8956 79.4771 19.0568 78.6717 19.3795L78.1735 17.9668C79.1531 17.5397 80.1069 17.3262 81.0345 17.3262C81.6734 17.3262 82.244 17.4045 82.7472 17.5614C83.2502 17.7184 83.646 17.9473 83.935 18.2481C84.224 18.5489 84.3689 18.8997 84.3689 19.301C84.3689 19.6323 84.267 19.931 84.0666 20.1969C83.8654 20.4629 83.5889 20.6742 83.2402 20.8312ZM93.1229 17.4568L89.9325 24.9248C89.6095 25.7357 89.2088 26.3068 88.7326 26.6382C88.2549 26.9696 87.6802 27.1352 87.0062 27.1352C86.6385 27.1352 86.275 27.0785 85.9165 26.9651C85.5588 26.8519 85.2648 26.6949 85.0379 26.4943L85.7856 25.0426C85.9438 25.1822 86.1251 25.291 86.3305 25.3697C86.5359 25.448 86.7387 25.4872 86.9408 25.4872C87.2206 25.4872 87.4483 25.4197 87.6231 25.2846C87.7986 25.1492 87.9559 24.9248 88.0959 24.611L88.1215 24.5456L85.0636 17.4568H87.1768L89.1591 22.2305L91.153 17.4568H93.1229ZM100.381 17.4568V24.4933H98.3321V19.1309H96.1014L96.0359 20.3734C96.0003 21.2975 95.9134 22.065 95.7735 22.6752C95.6335 23.2857 95.4058 23.7652 95.0912 24.114C94.7765 24.4626 94.3385 24.6372 93.7787 24.6372C93.4814 24.6372 93.127 24.5847 92.7155 24.4801L92.8207 22.8061C92.9606 22.8234 93.0608 22.8322 93.1229 22.8322C93.4285 22.8322 93.6578 22.7209 93.811 22.4987C93.9642 22.2764 94.0669 21.9932 94.1199 21.6485C94.1729 21.3042 94.211 20.8487 94.2383 20.2819L94.3426 17.4568H100.381ZM106.168 19.7063C107.086 19.7151 107.792 19.9222 108.281 20.3276C108.771 20.7331 109.016 21.3064 109.016 22.0475C109.016 22.8234 108.743 23.4273 108.197 23.859C107.648 24.2904 106.882 24.5063 105.892 24.5063L102.349 24.4933V17.4568H104.383V19.7063H106.168ZM105.709 23.0546C106.102 23.0633 106.404 22.9804 106.614 22.8061C106.824 22.6316 106.93 22.37 106.93 22.0214C106.93 21.6812 106.826 21.4328 106.622 21.2758C106.415 21.1189 106.111 21.036 105.709 21.0273L104.383 21.0142V23.0546H105.709ZM115.579 19.1309H113.19V24.4933H111.156V19.1309H108.767V17.4568H115.579V19.1309ZM119.411 17.3523C120.505 17.3523 121.344 17.6116 121.931 18.1304C122.517 18.6492 122.81 19.4317 122.81 20.478V24.4933H120.894V23.617C120.509 24.2709 119.792 24.5979 118.742 24.5979C118.199 24.5979 117.729 24.5063 117.331 24.3231C116.932 24.1401 116.628 23.8872 116.418 23.5645C116.209 23.242 116.103 22.8759 116.103 22.4661C116.103 21.8121 116.351 21.2975 116.845 20.9226C117.34 20.5477 118.102 20.3603 119.135 20.3603H120.763C120.763 19.9158 120.627 19.5733 120.356 19.3338C120.085 19.0938 119.678 18.974 119.135 18.974C118.759 18.974 118.39 19.0328 118.026 19.1506C117.663 19.2681 117.355 19.4274 117.1 19.6279L116.366 18.2024C116.75 17.932 117.212 17.7227 117.75 17.5746C118.289 17.4264 118.842 17.3523 119.411 17.3523ZM119.253 23.2247C119.604 23.2247 119.914 23.1439 120.185 22.9827C120.456 22.8214 120.649 22.5836 120.763 22.2698V21.5505H119.359C118.518 21.5505 118.098 21.8251 118.098 22.3746C118.098 22.6361 118.201 22.843 118.406 22.9958C118.612 23.1484 118.895 23.2247 119.253 23.2247ZM130.217 19.1309H128.139V24.4933H126.104V19.1309H123.716V17.4568H130.837L130.217 19.1309Z" fill="white"/>
</g>
</svg>
