<svg width="103" height="110" viewBox="0 0 103 110" fill="none" xmlns="http://www.w3.org/2000/svg">
<g id="Frame">
<path id="Vector" d="M92.3889 0.219849C92.3889 0.219849 85.93 31.7675 86.8087 45.1247" stroke="#191919" stroke-width="1.5" stroke-miterlimit="10"/>
<path id="Vector_2" d="M10.0918 0.219849C10.0918 0.219849 11.3221 7.42571 12.6842 16.0815C14.5144 25.6633 15.5869 35.3744 15.8916 45.1247" stroke="#191919" stroke-width="1.5" stroke-miterlimit="10"/>
<path id="Vector_3" d="M89.5705 15.8615C79.5526 17.0917 50.0262 9.27075 50.0262 9.27075C50.0262 9.27075 19.8846 16.5645 12.8984 16.0812" stroke="#191919" stroke-width="1.5" stroke-miterlimit="10"/>
<path id="Vector_4" d="M92.3828 58.7452C92.3828 58.7452 105.081 89.9853 100.687 107.78" stroke="#191919" stroke-width="1.5" stroke-miterlimit="10"/>
<path id="Vector_5" d="M10.0862 58.7452C10.0862 58.7452 -1.38159 90.3368 2.04559 107.78" stroke="#191919" stroke-width="1.5" stroke-miterlimit="10"/>
<path id="Vector_6" d="M98.2728 77.0237C85.355 84.0538 51.1711 84.7568 51.1711 84.7568C51.1711 84.7568 12.0223 82.9553 4.72852 77.0237" stroke="#191919" stroke-width="1.5" stroke-miterlimit="10"/>
<path id="Vector_7" d="M100.164 85.5913C92.0793 90.3806 51.4804 92.9729 51.4804 92.9729C51.4804 92.9729 13.7375 91.5669 3.14844 85.5913" stroke="#191919" stroke-width="1.5" stroke-miterlimit="10"/>
<path id="Vector_8" d="M95.9476 39.2368C95.9476 39.2368 111.941 55.8015 52.7125 55.9773C-6.51616 56.153 6.35771 39.2368 6.35771 39.2368" stroke="#191919" stroke-width="1.5" stroke-miterlimit="10"/>
<path id="Vector_9" d="M35.9216 50.8362L35.5262 59.5799L22.3887 54.1755L35.9216 50.8362Z" fill="#191919" stroke="#191919" stroke-width="1.5" stroke-miterlimit="10"/>
</g>
</svg>
